<svg width="24" height="24" viewBox="0 0 24 24" fill="none" xmlns="http://www.w3.org/2000/svg">
<path fill-rule="evenodd" clip-rule="evenodd" d="M10.6506 1.5009C11.0625 1.26903 11.5271 1.14722 11.9998 1.14722C12.4724 1.14722 12.9371 1.26903 13.3489 1.5009C13.7608 1.73278 14.1059 2.06689 14.351 2.47099L14.3532 2.47455L22.8294 16.6249C23.0695 17.0407 23.1964 17.5122 23.1978 17.9924C23.1991 18.4726 23.0747 18.9447 22.8369 19.3619C22.5991 19.7791 22.2563 20.1267 21.8424 20.3702C21.4286 20.6137 20.9582 20.7446 20.478 20.7499L20.4698 20.75L3.52153 20.75C3.04138 20.7447 2.57098 20.6137 2.15713 20.3702C1.74328 20.1267 1.40041 19.7791 1.16262 19.3619C0.924834 18.9447 0.800424 18.4726 0.801769 17.9924C0.803113 17.5122 0.930165 17.0407 1.17028 16.6249L1.17629 16.6145L9.64638 2.47456L9.64853 2.47099C9.89365 2.06689 10.2388 1.73278 10.6506 1.5009ZM11.9998 2.64722C11.7849 2.64722 11.5737 2.70259 11.3865 2.80798C11.1999 2.91308 11.0433 3.06438 10.932 3.24736C10.9317 3.24789 10.9313 3.24841 10.931 3.24893L2.46662 17.3796C2.35919 17.5675 2.30237 17.7801 2.30176 17.9966C2.30115 18.2148 2.3577 18.4295 2.46579 18.6191C2.57387 18.8087 2.72972 18.9667 2.91784 19.0774C3.1049 19.1875 3.31737 19.2469 3.53435 19.25H20.4652C20.6822 19.2469 20.8947 19.1875 21.0817 19.0774C21.2698 18.9667 21.4257 18.8087 21.5338 18.6191C21.6419 18.4295 21.6984 18.2148 21.6978 17.9966C21.6972 17.7801 21.6404 17.5675 21.5329 17.3796L13.0685 3.24893C13.0682 3.24841 13.0679 3.24789 13.0676 3.24736C12.9562 3.06438 12.7997 2.91308 12.613 2.80798C12.4258 2.70259 12.2146 2.64722 11.9998 2.64722ZM12.7498 7.24996V12.75H11.2498V7.24996H12.7498ZM11.2498 15.25H12.7598V16.75H11.2498V15.25Z" fill="#1E1915"/>
</svg>
