<svg width="24" height="24" viewBox="0 0 24 24" fill="none" xmlns="http://www.w3.org/2000/svg">
<path d="M9 7.75C9.41421 7.75 9.75 7.41421 9.75 7C9.75 6.58579 9.41421 6.25 9 6.25V7.75ZM3 21H2.25V21.75H3V21ZM15 10.25C14.5858 10.25 14.25 10.5858 14.25 11C14.25 11.4142 14.5858 11.75 15 11.75V10.25ZM21 21V21.75H21.75V21H21ZM9.29289 3.29289L8.76256 2.76256L9.29289 3.29289ZM14.7071 3.29289L14.1768 3.82322L14.7071 3.29289ZM20.7071 11.2929L21.2374 10.7626L20.7071 11.2929ZM3.29289 7.29289L2.76256 6.76256L3.29289 7.29289ZM5 7.75H9V6.25H5V7.75ZM9 20.25H3V21.75H9V20.25ZM3.75 21V9H2.25V21H3.75ZM15 11.75H19V10.25H15V11.75ZM20.25 13V21H21.75V13H20.25ZM21 20.25H15V21.75H21V20.25ZM11 3.75H13V2.25H11V3.75ZM14.25 5V21H15.75V5H14.25ZM15 20.25H9V21.75H15V20.25ZM9.75 21V5H8.25V21H9.75ZM11 2.25C10.5498 2.25 10.1367 2.24841 9.80279 2.2933C9.44731 2.34109 9.07159 2.45354 8.76256 2.76256L9.82322 3.82322C9.82368 3.82277 9.8237 3.82279 9.82335 3.82307C9.823 3.82335 9.82276 3.82351 9.82283 3.82347C9.82292 3.82341 9.82376 3.82286 9.82567 3.82186C9.8276 3.82085 9.83092 3.81923 9.83596 3.81716C9.85774 3.8082 9.90611 3.79291 10.0027 3.77992C10.2134 3.75159 10.5074 3.75 11 3.75V2.25ZM9.75 5C9.75 4.50739 9.75159 4.21339 9.77992 4.00266C9.79291 3.90611 9.8082 3.85774 9.81716 3.83596C9.81923 3.83092 9.82085 3.8276 9.82186 3.82567C9.82286 3.82376 9.82341 3.82292 9.82347 3.82283C9.82351 3.82277 9.82335 3.823 9.82307 3.82335C9.82279 3.8237 9.82277 3.82368 9.82322 3.82322L8.76256 2.76256C8.45354 3.07159 8.34109 3.44731 8.2933 3.80279C8.24841 4.1367 8.25 4.5498 8.25 5H9.75ZM13 3.75C13.4926 3.75 13.7866 3.75159 13.9973 3.77992C14.0939 3.79291 14.1423 3.8082 14.164 3.81716C14.1691 3.81923 14.1724 3.82085 14.1743 3.82186C14.1762 3.82286 14.1771 3.82341 14.1772 3.82347C14.1772 3.82351 14.177 3.82335 14.1766 3.82307C14.1763 3.82279 14.1763 3.82277 14.1768 3.82322L15.2374 2.76256C14.9284 2.45354 14.5527 2.34109 14.1972 2.2933C13.8633 2.24841 13.4502 2.25 13 2.25V3.75ZM15.75 5C15.75 4.5498 15.7516 4.1367 15.7067 3.80279C15.6589 3.44731 15.5465 3.07159 15.2374 2.76256L14.1768 3.82322C14.1772 3.82368 14.1772 3.8237 14.1769 3.82335C14.1766 3.823 14.1765 3.82277 14.1765 3.82283C14.1766 3.82292 14.1771 3.82376 14.1781 3.82567C14.1791 3.8276 14.1808 3.83092 14.1828 3.83596C14.1918 3.85774 14.2071 3.90611 14.2201 4.00266C14.2484 4.21339 14.25 4.50739 14.25 5H15.75ZM19 11.75C19.4926 11.75 19.7866 11.7516 19.9973 11.7799C20.0939 11.7929 20.1423 11.8082 20.164 11.8172C20.1691 11.8192 20.1724 11.8209 20.1743 11.8219C20.1762 11.8229 20.1771 11.8234 20.1772 11.8235C20.1772 11.8235 20.177 11.8234 20.1766 11.8231C20.1763 11.8228 20.1763 11.8228 20.1768 11.8232L21.2374 10.7626C20.9284 10.4535 20.5527 10.3411 20.1972 10.2933C19.8633 10.2484 19.4502 10.25 19 10.25V11.75ZM21.75 13C21.75 12.5498 21.7516 12.1367 21.7067 11.8028C21.6589 11.4473 21.5465 11.0716 21.2374 10.7626L20.1768 11.8232C20.1772 11.8237 20.1772 11.8237 20.1769 11.8234C20.1766 11.823 20.1765 11.8228 20.1765 11.8228C20.1766 11.8229 20.1771 11.8238 20.1781 11.8257C20.1791 11.8276 20.1808 11.8309 20.1828 11.836C20.1918 11.8577 20.2071 11.9061 20.2201 12.0027C20.2484 12.2134 20.25 12.5074 20.25 13H21.75ZM5 6.25C4.5498 6.25 4.1367 6.24841 3.80279 6.2933C3.44731 6.34109 3.07159 6.45354 2.76256 6.76256L3.82322 7.82322C3.82368 7.82277 3.8237 7.82279 3.82335 7.82307C3.823 7.82335 3.82277 7.82351 3.82283 7.82347C3.82292 7.82341 3.82376 7.82286 3.82567 7.82186C3.8276 7.82085 3.83092 7.81923 3.83596 7.81716C3.85774 7.8082 3.90611 7.79291 4.00266 7.77992C4.21339 7.75159 4.50739 7.75 5 7.75V6.25ZM3.75 9C3.75 8.50739 3.75159 8.21339 3.77992 8.00266C3.79291 7.90611 3.8082 7.85774 3.81716 7.83596C3.81923 7.83092 3.82085 7.8276 3.82186 7.82567C3.82286 7.82376 3.82341 7.82292 3.82347 7.82283C3.82351 7.82277 3.82335 7.823 3.82307 7.82335C3.82279 7.8237 3.82277 7.82368 3.82322 7.82322L2.76256 6.76256C2.45354 7.07159 2.34109 7.44731 2.2933 7.80279C2.24841 8.1367 2.25 8.5498 2.25 9H3.75Z" fill="#1E1915"/>
</svg>
