<svg width="32" height="32" viewBox="0 0 32 32" fill="none" xmlns="http://www.w3.org/2000/svg">
<g clip-path="url(#clip0_105_2941)">
<path d="M32 16C32 24.8366 24.8366 32 16 32C7.16344 32 0 24.8366 0 16C0 7.16344 7.16344 0 16 0C24.8366 0 32 7.16344 32 16ZM1.92 16C1.92 23.7762 8.22383 30.08 16 30.08C23.7762 30.08 30.08 23.7762 30.08 16C30.08 8.22383 23.7762 1.92 16 1.92C8.22383 1.92 1.92 8.22383 1.92 16Z" fill="#EC407A"/>
<path d="M22.6531 23.559C22.6131 23.3999 21.6149 19.6666 15.9998 19.6666C10.3838 19.6666 9.38643 23.3999 9.34643 23.559C9.29754 23.7519 9.38465 23.9519 9.5571 24.0514C9.73043 24.1483 9.94732 24.1217 10.0904 23.983C10.1073 23.9661 11.8273 22.3332 15.9998 22.3332C20.1722 22.3332 21.8931 23.9661 21.9091 23.9821C21.9944 24.0666 22.1082 24.111 22.222 24.111C22.2967 24.111 22.3722 24.0923 22.4407 24.0541C22.6149 23.9546 22.702 23.7528 22.6531 23.559ZM13.9615 12.3714C11.0682 9.47811 6.41843 9.44434 6.22199 9.44434C5.73132 9.44434 5.33399 9.84167 5.33399 10.3314C5.3331 10.8221 5.73043 11.2203 6.2211 11.2221C6.24687 11.2221 7.93221 11.2417 9.76154 11.8772C9.23443 12.4461 8.88865 13.3297 8.88865 14.3332C8.88865 16.0523 9.88332 17.4443 11.1109 17.4443C12.3384 17.4443 13.3331 16.0523 13.3331 14.3332C13.3331 14.1786 13.3162 14.031 13.3002 13.8826C13.3118 13.8826 13.3224 13.8888 13.3331 13.8888C13.5607 13.8888 13.7882 13.8017 13.9615 13.6283C14.3091 13.2808 14.3091 12.719 13.9615 12.3714ZM25.7775 9.44434C25.5811 9.44434 20.9322 9.47811 18.038 12.3714C17.6904 12.719 17.6904 13.2808 18.038 13.6283C18.2113 13.8017 18.4389 13.8888 18.6664 13.8888C18.678 13.8888 18.6878 13.8826 18.6984 13.8826C18.6842 14.031 18.6664 14.1786 18.6664 14.3332C18.6664 16.0523 19.6611 17.4443 20.8887 17.4443C22.1162 17.4443 23.1109 16.0523 23.1109 14.3332C23.1109 13.3297 22.7651 12.4461 22.238 11.8772C24.0673 11.2417 25.7527 11.2221 25.7793 11.2221C26.2691 11.2203 26.6664 10.8221 26.6655 10.3314C26.6647 9.84167 26.2682 9.44434 25.7775 9.44434Z" fill="#EC407A"/>
</g>
<defs>
<clipPath id="clip0_105_2941">
<rect width="32" height="32" fill="white"/>
</clipPath>
</defs>
</svg>
