<svg width="24" height="24" viewBox="0 0 24 24" fill="none" xmlns="http://www.w3.org/2000/svg">
<path fill-rule="evenodd" clip-rule="evenodd" d="M8.75 1.25V3.25001C8.81443 3.25 8.87948 3.25 8.94513 3.25H15.0549C15.1205 3.25 15.1856 3.25 15.25 3.25001V1.25H16.75V3.26075C17.3712 3.2738 17.9168 3.30266 18.3918 3.36652C19.2919 3.48754 20.0497 3.74643 20.6517 4.34835C21.2536 4.95027 21.5125 5.70814 21.6335 6.60825C21.75 7.47522 21.75 8.57754 21.75 9.94513V16.0549C21.75 17.4225 21.75 18.5248 21.6335 19.3918C21.5125 20.2919 21.2536 21.0497 20.6517 21.6517C20.0497 22.2536 19.2919 22.5125 18.3918 22.6335C17.5248 22.75 16.4225 22.75 15.0549 22.75H8.94513C7.57754 22.75 6.47522 22.75 5.60825 22.6335C4.70814 22.5125 3.95027 22.2536 3.34835 21.6517C2.74643 21.0497 2.48754 20.2919 2.36652 19.3918C2.24996 18.5248 2.24998 17.4225 2.25 16.0549V9.94513C2.24998 8.57754 2.24996 7.47522 2.36652 6.60825C2.48754 5.70814 2.74643 4.95027 3.34835 4.34835C3.95027 3.74643 4.70814 3.48754 5.60825 3.36652C6.08322 3.30266 6.62883 3.2738 7.25 3.26075V1.25H8.75ZM7.25 4.76115C6.68097 4.77341 6.2098 4.79914 5.80812 4.85315C5.07435 4.9518 4.68577 5.13225 4.40901 5.40901C4.13225 5.68577 3.9518 6.07435 3.85315 6.80812C3.7703 7.42437 3.75398 8.2042 3.75078 9.25H20.2492C20.246 8.2042 20.2297 7.42437 20.1469 6.80812C20.0482 6.07435 19.8678 5.68577 19.591 5.40901C19.3142 5.13225 18.9257 4.9518 18.1919 4.85315C17.7902 4.79914 17.319 4.77341 16.75 4.76115V6.75H15.25V4.75004C15.1682 4.75001 15.0848 4.75 15 4.75H9C8.91516 4.75 8.83184 4.75001 8.75 4.75004V6.75H7.25V4.76115ZM20.25 10.75H3.75V16C3.75 17.4354 3.75159 18.4365 3.85315 19.1919C3.9518 19.9257 4.13225 20.3142 4.40901 20.591C4.68577 20.8678 5.07435 21.0482 5.80812 21.1469C6.56347 21.2484 7.56458 21.25 9 21.25H15C16.4354 21.25 17.4365 21.2484 18.1919 21.1469C18.9257 21.0482 19.3142 20.8678 19.591 20.591C19.8678 20.3142 20.0482 19.9257 20.1469 19.1919C20.2484 18.4365 20.25 17.4354 20.25 16V10.75Z" fill="#1E1915"/>
</svg>
