<svg width="24" height="24" viewBox="0 0 24 24" fill="none" xmlns="http://www.w3.org/2000/svg">
<path fill-rule="evenodd" clip-rule="evenodd" d="M7.948 2.25H16.052C16.9505 2.24997 17.6997 2.24995 18.2945 2.32991C18.9223 2.41432 19.4891 2.59999 19.9445 3.05546C20.4 3.51093 20.5857 4.07773 20.6701 4.70552C20.7501 5.30031 20.75 6.04953 20.75 6.94801V20.25H22.75V21.75H1.25V20.25H3.25L3.25 6.948C3.24997 6.04952 3.24994 5.3003 3.32991 4.70552C3.41432 4.07773 3.59999 3.51093 4.05546 3.05546C4.51093 2.59999 5.07773 2.41432 5.70552 2.32991C6.3003 2.24995 7.04952 2.24997 7.948 2.25ZM4.75 20.25H19.25V7C19.25 6.03599 19.2484 5.38843 19.1835 4.90539C19.1214 4.44393 19.0142 4.24644 18.8839 4.11612C18.7536 3.9858 18.5561 3.87858 18.0946 3.81654C17.6116 3.7516 16.964 3.75 16 3.75H8C7.03599 3.75 6.38843 3.7516 5.90539 3.81654C5.44393 3.87858 5.24643 3.9858 5.11612 4.11612C4.9858 4.24644 4.87858 4.44393 4.81654 4.90539C4.75159 5.38843 4.75 6.03599 4.75 7V20.25ZM7.25 6.25H10.75V7.75H7.25V6.25ZM13.25 6.25H16.75V7.75H13.25V6.25ZM7.25 10.25H10.75V11.75H7.25V10.25ZM13.25 10.25H16.75V11.75H13.25V10.25ZM7.25 14.25H10.75V15.75H7.25V14.25ZM13.25 14.25H16.75V15.75H13.25V14.25Z" fill="#1E1915"/>
</svg>
