<svg width="24" height="24" viewBox="0 0 24 24" fill="none" xmlns="http://www.w3.org/2000/svg">
<path fill-rule="evenodd" clip-rule="evenodd" d="M5.948 4.25H18.052C18.9505 4.24997 19.6997 4.24995 20.2945 4.32991C20.9223 4.41432 21.4891 4.59999 21.9445 5.05546C22.4 5.51093 22.5857 6.07773 22.6701 6.70552C22.7501 7.3003 22.75 8.04953 22.75 8.94801V15.052C22.75 15.9505 22.7501 16.6997 22.6701 17.2945C22.5857 17.9223 22.4 18.4891 21.9445 18.9445C21.4891 19.4 20.9223 19.5857 20.2945 19.6701C19.6997 19.7501 18.9505 19.75 18.052 19.75L5.94801 19.75C5.04953 19.75 4.3003 19.7501 3.70552 19.6701C3.07773 19.5857 2.51093 19.4 2.05546 18.9445C1.59999 18.4891 1.41432 17.9223 1.32991 17.2945C1.24995 16.6997 1.24997 15.9505 1.25 15.052V8.948C1.24997 8.04952 1.24995 7.3003 1.32991 6.70552C1.41432 6.07773 1.59999 5.51093 2.05546 5.05546C2.51093 4.59999 3.07773 4.41432 3.70552 4.32991C4.3003 4.24995 5.04952 4.24997 5.948 4.25ZM2.75 10.75V15C2.75 15.964 2.7516 16.6116 2.81654 17.0946C2.87858 17.5561 2.9858 17.7536 3.11612 17.8839C3.24644 18.0142 3.44393 18.1214 3.90539 18.1835C4.38843 18.2484 5.03599 18.25 6 18.25L18 18.25C18.964 18.25 19.6116 18.2484 20.0946 18.1835C20.5561 18.1214 20.7536 18.0142 20.8839 17.8839C21.0142 17.7536 21.1214 17.5561 21.1835 17.0946C21.2484 16.6116 21.25 15.964 21.25 15V10.75H2.75ZM21.25 9.25H2.75V9C2.75 8.03599 2.7516 7.38843 2.81654 6.90539C2.87858 6.44393 2.9858 6.24644 3.11612 6.11612C3.24644 5.9858 3.44393 5.87858 3.90539 5.81654C4.38843 5.7516 5.03599 5.75 6 5.75H18C18.964 5.75 19.6116 5.7516 20.0946 5.81654C20.5561 5.87858 20.7536 5.9858 20.8839 6.11612C21.0142 6.24644 21.1214 6.44393 21.1835 6.90539C21.2484 7.38843 21.25 8.03599 21.25 9V9.25ZM5.25 13.25H9.75V14.75H5.25V13.25Z" fill="#1E1915"/>
</svg>
