<svg width="24" height="24" viewBox="0 0 24 24" fill="none" xmlns="http://www.w3.org/2000/svg">
<path fill-rule="evenodd" clip-rule="evenodd" d="M5.89068 2.78838C6.35331 2.75058 6.94755 2.75 7.8 2.75H12H12.75V1.25H12H7.8H7.76789C6.95506 1.24999 6.29944 1.24999 5.76853 1.29336C5.2219 1.33803 4.74175 1.43239 4.29754 1.65873C3.59193 2.01825 3.01825 2.59193 2.65873 3.29754C2.43238 3.74175 2.33803 4.2219 2.29336 4.76853C2.24999 5.29944 2.24999 5.95505 2.25 6.76788V6.8V17.2V17.2321C2.24999 18.045 2.24999 18.7006 2.29336 19.2315C2.33803 19.7781 2.43238 20.2582 2.65873 20.7025C3.01825 21.4081 3.59193 21.9817 4.29754 22.3413C4.74175 22.5676 5.2219 22.662 5.76853 22.7066C6.29944 22.75 6.95505 22.75 7.76788 22.75H7.8H14.2H14.2321C15.045 22.75 15.7006 22.75 16.2315 22.7066C16.7781 22.662 17.2582 22.5676 17.7025 22.3413C18.4081 21.9817 18.9817 21.4081 19.3413 20.7025C19.5676 20.2582 19.662 19.7781 19.7066 19.2315C19.75 18.7006 19.75 18.0449 19.75 17.2321V17.2V15V14.25H18.25V15V17.2C18.25 18.0525 18.2494 18.6467 18.2116 19.1093C18.1745 19.5632 18.1054 19.824 18.0048 20.0215C17.789 20.4448 17.4448 20.789 17.0215 21.0048C16.824 21.1054 16.5632 21.1745 16.1093 21.2116C15.6467 21.2494 15.0525 21.25 14.2 21.25H7.8C6.94755 21.25 6.35331 21.2494 5.89068 21.2116C5.4368 21.1745 5.17604 21.1054 4.97852 21.0048C4.55516 20.789 4.21095 20.4448 3.99524 20.0215C3.8946 19.824 3.82547 19.5632 3.78838 19.1093C3.75058 18.6467 3.75 18.0525 3.75 17.2V6.8C3.75 5.94755 3.75058 5.35331 3.78838 4.89068C3.82547 4.4368 3.8946 4.17604 3.99524 3.97852C4.21095 3.55516 4.55516 3.21095 4.97852 2.99524C5.17604 2.8946 5.4368 2.82547 5.89068 2.78838ZM18.667 1.95053C19.6011 1.0165 21.1154 1.01649 22.0494 1.9505C22.9835 2.88453 22.9835 4.39893 22.0495 5.33297L16.053 11.3294L16.0328 11.3496L16.0328 11.3496C15.9521 11.4305 15.8622 11.5207 15.7573 11.5976C15.6658 11.6649 15.5676 11.7226 15.4644 11.77C15.3461 11.8243 15.2237 11.8591 15.1137 11.8904L15.1137 11.8904L15.1137 11.8904L15.0862 11.8982L12.206 12.7211C11.9441 12.796 11.6623 12.7229 11.4697 12.5303C11.2771 12.3377 11.204 12.0559 11.2789 11.794L12.1018 8.91375L12.1096 8.8863C12.1409 8.77636 12.1757 8.65386 12.23 8.53563C12.2774 8.43239 12.3351 8.33424 12.4024 8.24266C12.4793 8.13779 12.5695 8.04785 12.6504 7.96713L12.6706 7.94697L18.667 1.95053ZM20.9888 3.01117C20.6406 2.66294 20.076 2.66294 19.7277 3.01118L13.7313 9.00763C13.6776 9.06134 13.6487 9.09028 13.6276 9.1127C13.6173 9.12369 13.6125 9.12927 13.6109 9.13121C13.6042 9.14041 13.5984 9.15023 13.5936 9.16053L13.5913 9.16678L13.5856 9.18419C13.5762 9.21354 13.5649 9.25279 13.5441 9.32583L13.092 10.908L14.6742 10.4559C14.7472 10.4351 14.7865 10.4238 14.8158 10.4144C14.8302 10.4098 14.8371 10.4073 14.8394 10.4064C14.8497 10.4016 14.8596 10.3958 14.8688 10.3891C14.8707 10.3875 14.8763 10.3827 14.8873 10.3724C14.9097 10.3513 14.9386 10.3224 14.9924 10.2687L20.9888 4.27231C21.3371 3.92406 21.3371 3.35942 20.9888 3.01117ZM11.8584 15.9195C11.3199 16.3602 10.6801 16.3602 10.1416 15.9195C9.05051 15.0268 7.61616 15.0268 6.52507 15.9195L5.9446 16.3945L6.89446 17.5554L7.47493 17.0805C8.01347 16.6398 8.6532 16.6398 9.19174 17.0805C10.2828 17.9732 11.7172 17.9732 12.8083 17.0805C13.3468 16.6398 13.9865 16.6398 14.5251 17.0805L15.1055 17.5554L16.0554 16.3945L15.4749 15.9195C14.3838 15.0268 12.9495 15.0268 11.8584 15.9195Z" fill="#1E1915"/>
</svg>
