<svg width="24" height="24" viewBox="0 0 24 24" fill="none" xmlns="http://www.w3.org/2000/svg">
<path fill-rule="evenodd" clip-rule="evenodd" d="M6.25 5C6.25 4.0335 7.0335 3.25 8 3.25C8.9665 3.25 9.75 4.0335 9.75 5C9.75 5.9665 8.9665 6.75 8 6.75C7.0335 6.75 6.25 5.9665 6.25 5ZM13.25 5C13.25 4.0335 14.0335 3.25 15 3.25C15.9665 3.25 16.75 4.0335 16.75 5C16.75 5.9665 15.9665 6.75 15 6.75C14.0335 6.75 13.25 5.9665 13.25 5ZM6.25 12C6.25 11.0335 7.0335 10.25 8 10.25C8.9665 10.25 9.75 11.0335 9.75 12C9.75 12.9665 8.9665 13.75 8 13.75C7.0335 13.75 6.25 12.9665 6.25 12ZM13.25 12C13.25 11.0335 14.0335 10.25 15 10.25C15.9665 10.25 16.75 11.0335 16.75 12C16.75 12.9665 15.9665 13.75 15 13.75C14.0335 13.75 13.25 12.9665 13.25 12ZM6.25 19C6.25 18.0335 7.0335 17.25 8 17.25C8.9665 17.25 9.75 18.0335 9.75 19C9.75 19.9665 8.9665 20.75 8 20.75C7.0335 20.75 6.25 19.9665 6.25 19ZM13.25 19C13.25 18.0335 14.0335 17.25 15 17.25C15.9665 17.25 16.75 18.0335 16.75 19C16.75 19.9665 15.9665 20.75 15 20.75C14.0335 20.75 13.25 19.9665 13.25 19Z" fill="#1E1915"/>
</svg>
