<svg width="24" height="24" viewBox="0 0 24 24" fill="none" xmlns="http://www.w3.org/2000/svg">
<path fill-rule="evenodd" clip-rule="evenodd" d="M20.8408 2.90346C20.364 2.47009 19.636 2.47009 19.1592 2.90346C19.1405 2.92046 19.1161 2.94457 19.0303 3.03033L9.11612 12.9445C8.96383 13.0968 8.87909 13.1823 8.82012 13.2509C8.79385 13.2815 8.78085 13.2996 8.77456 13.3092C8.77157 13.3138 8.77014 13.3164 8.76963 13.3173L8.76903 13.3185L8.7686 13.3198C8.76839 13.3205 8.76795 13.322 8.76735 13.3245C8.76706 13.3258 8.76672 13.3273 8.76635 13.329C8.76401 13.3403 8.76042 13.3623 8.75736 13.4025C8.7505 13.4927 8.75 13.6131 8.75 13.8284V15.25H10.1716C10.3869 15.25 10.5073 15.2495 10.5975 15.2426C10.6377 15.2396 10.6597 15.236 10.671 15.2336C10.6726 15.2333 10.6741 15.233 10.6753 15.2327C10.6779 15.2321 10.6795 15.2316 10.6802 15.2314L10.6815 15.231L10.6827 15.2304C10.6836 15.2299 10.6862 15.2284 10.6908 15.2254C10.7004 15.2192 10.7185 15.2062 10.7491 15.1799C10.8177 15.1209 10.9032 15.0362 11.0555 14.8839L20.9697 4.96967C21.0554 4.88391 21.0795 4.85949 21.0965 4.84079C21.5299 4.36403 21.5299 3.63598 21.0965 3.15922C21.0795 3.14051 21.0554 3.1161 20.9697 3.03033C20.8839 2.94457 20.8595 2.92046 20.8408 2.90346ZM18.1503 1.79349C19.1991 0.840078 20.8009 0.840078 21.8497 1.79349C21.8986 1.83787 21.9504 1.88975 22.0178 1.95711L22.043 1.9823C22.1103 2.04962 22.1622 2.10147 22.2065 2.15027C23.1599 3.19915 23.1599 4.80086 22.2065 5.84973C22.1621 5.89857 22.1102 5.95044 22.0429 6.01781L12.1161 15.9445C12.0974 15.9633 12.0786 15.9822 12.0596 16.0013C11.83 16.2322 11.5822 16.4815 11.2555 16.6168C10.9288 16.7521 10.5773 16.7511 10.2516 16.7502C10.2248 16.7501 10.1981 16.75 10.1716 16.75H8C7.58579 16.75 7.25 16.4142 7.25 16V13.8284C7.25 13.8019 7.24992 13.7752 7.24985 13.7484C7.24891 13.4227 7.24789 13.0712 7.38321 12.7445C7.51853 12.4178 7.76779 12.17 7.99874 11.9404C8.0178 11.9214 8.03673 11.9026 8.05546 11.8839L17.9822 1.95714C18.0496 1.88976 18.1014 1.83787 18.1503 1.79349ZM7.94512 3.25L11.75 3.25V4.75H8C6.56458 4.75 5.56347 4.7516 4.80812 4.85315C4.07435 4.9518 3.68577 5.13225 3.40901 5.40901C3.13225 5.68578 2.9518 6.07435 2.85315 6.80812C2.75159 7.56347 2.75 8.56459 2.75 10V16C2.75 17.4354 2.75159 18.4365 2.85315 19.1919C2.9518 19.9257 3.13225 20.3142 3.40901 20.591C3.68577 20.8678 4.07435 21.0482 4.80812 21.1469C5.56347 21.2484 6.56459 21.25 8 21.25H14C15.4354 21.25 16.4365 21.2484 17.1919 21.1469C17.9257 21.0482 18.3142 20.8678 18.591 20.591C18.8678 20.3142 19.0482 19.9257 19.1469 19.1919C19.2484 18.4365 19.25 17.4354 19.25 16V12.25H20.75V16.0549C20.75 17.4225 20.75 18.5248 20.6335 19.3918C20.5125 20.2919 20.2536 21.0497 19.6517 21.6517C19.0497 22.2536 18.2919 22.5125 17.3918 22.6335C16.5248 22.75 15.4225 22.75 14.0549 22.75H7.94513C6.57754 22.75 5.47522 22.75 4.60825 22.6335C3.70814 22.5125 2.95027 22.2536 2.34835 21.6517C1.74643 21.0497 1.48754 20.2919 1.36652 19.3918C1.24996 18.5248 1.24998 17.4225 1.25 16.0549V9.94513C1.24998 8.57754 1.24996 7.47522 1.36652 6.60825C1.48754 5.70814 1.74643 4.95027 2.34835 4.34835C2.95027 3.74644 3.70814 3.48754 4.60825 3.36653C5.47522 3.24997 6.57754 3.24998 7.94512 3.25Z" fill="#1E1915"/>
</svg>
