<svg width="24" height="24" viewBox="0 0 24 24" fill="none" xmlns="http://www.w3.org/2000/svg">
<path fill-rule="evenodd" clip-rule="evenodd" d="M9.94513 1.25L14.3107 1.25L20.75 7.68934V16.0549C20.75 17.4225 20.75 18.5248 20.6335 19.3918C20.5125 20.2919 20.2536 21.0497 19.6517 21.6517C19.0497 22.2536 18.2919 22.5125 17.3918 22.6335C16.5248 22.75 15.4225 22.75 14.0549 22.75H9.94513C8.57754 22.75 7.47522 22.75 6.60825 22.6335C5.70814 22.5125 4.95027 22.2536 4.34835 21.6517C3.74643 21.0497 3.48754 20.2919 3.36652 19.3918C3.24996 18.5248 3.24998 17.4225 3.25 16.0549V7.94513C3.24998 6.57754 3.24996 5.47522 3.36652 4.60825C3.48754 3.70814 3.74643 2.95027 4.34835 2.34835C4.95027 1.74643 5.70814 1.48754 6.60825 1.36652C7.47522 1.24996 8.57754 1.24998 9.94513 1.25ZM6.80812 2.85315C6.07435 2.9518 5.68577 3.13225 5.40901 3.40901C5.13225 3.68577 4.9518 4.07435 4.85315 4.80812C4.75159 5.56347 4.75 6.56459 4.75 8V16C4.75 17.4354 4.75159 18.4365 4.85315 19.1919C4.9518 19.9257 5.13225 20.3142 5.40901 20.591C5.68577 20.8678 6.07435 21.0482 6.80812 21.1469C7.56347 21.2484 8.56459 21.25 10 21.25H14C15.4354 21.25 16.4365 21.2484 17.1919 21.1469C17.9257 21.0482 18.3142 20.8678 18.591 20.591C18.8678 20.3142 19.0482 19.9257 19.1469 19.1919C19.2484 18.4365 19.25 17.4354 19.25 16V8.75H13.25V2.75H10C8.56458 2.75 7.56347 2.75159 6.80812 2.85315ZM14.75 3.81066L18.1893 7.25H14.75V3.81066Z" fill="#1E1915"/>
</svg>
