<svg width="16" height="16" viewBox="0 0 16 16" fill="none" xmlns="http://www.w3.org/2000/svg">
<mask id="path-1-inside-1_103_1441" fill="white">
<path fill-rule="evenodd" clip-rule="evenodd" d="M7.55495 3.01954C7.32296 3.04 7.10153 3.16683 7.03797 3.39088L6.99807 3.53151C6.82191 4.15244 6.1124 4.44633 5.54878 4.13183L5.42112 4.0606C5.21805 3.94729 4.97215 4.01395 4.79379 4.16315C4.56535 4.35424 4.35424 4.56536 4.16315 4.79379C4.01394 4.97215 3.94729 5.21805 4.0606 5.42112L4.13183 5.54878C4.44633 6.1124 4.15244 6.82191 3.53151 6.99807L3.39088 7.03797C3.16683 7.10153 3.04 7.32296 3.01954 7.55495C3.0066 7.70157 3 7.85002 3 8C3 8.14998 3.0066 8.29843 3.01954 8.44505C3.04 8.67704 3.16683 8.89847 3.39088 8.96203L3.53151 9.00193C4.15244 9.17809 4.44633 9.8876 4.13183 10.4512L4.0606 10.5789C3.94729 10.7819 4.01394 11.0278 4.16315 11.2062C4.35424 11.4346 4.56536 11.6458 4.79379 11.8369C4.97215 11.9861 5.21805 12.0527 5.42112 11.9394L5.54878 11.8682C6.1124 11.5537 6.82191 11.8476 6.99807 12.4685L7.03797 12.6091C7.10153 12.8332 7.32296 12.96 7.55495 12.9805C7.70157 12.9934 7.85002 13 8 13C8.14998 13 8.29843 12.9934 8.44505 12.9805C8.67704 12.96 8.89847 12.8332 8.96203 12.6091L9.00193 12.4685C9.17809 11.8476 9.8876 11.5537 10.4512 11.8682L10.5789 11.9394C10.7819 12.0527 11.0278 11.9861 11.2062 11.8369C11.4346 11.6458 11.6458 11.4346 11.8369 11.2062C11.9861 11.0278 12.0527 10.7819 11.9394 10.5789L11.8682 10.4512C11.5537 9.8876 11.8476 9.17809 12.4685 9.00193L12.6091 8.96203C12.8332 8.89847 12.96 8.67704 12.9805 8.44505C12.9934 8.29843 13 8.14998 13 8C13 7.85002 12.9934 7.70157 12.9805 7.55495C12.96 7.32296 12.8332 7.10153 12.6091 7.03797L12.4685 6.99807C11.8476 6.82191 11.5537 6.1124 11.8682 5.54878L11.9394 5.42112C12.0527 5.21805 11.9861 4.97215 11.8369 4.79379C11.6458 4.56536 11.4346 4.35424 11.2062 4.16315C11.0278 4.01395 10.7819 3.94729 10.5789 4.0606L10.4512 4.13183C9.8876 4.44633 9.17809 4.15244 9.00193 3.53151L8.96203 3.39088C8.89847 3.16683 8.67704 3.04 8.44505 3.01954C8.29843 3.0066 8.14998 3 8 3C7.85002 3 7.70157 3.0066 7.55495 3.01954Z"/>
</mask>
<path d="M6.99807 3.53151L5.55502 3.1221L5.55502 3.12211L6.99807 3.53151ZM5.54878 4.13183L6.27967 2.82195L6.27967 2.82195L5.54878 4.13183ZM4.13183 5.54878L5.44172 4.81788L4.13183 5.54878ZM3.53151 6.99807L3.94092 8.44112H3.94092L3.53151 6.99807ZM3.53151 9.00193L3.94092 7.55888L3.94092 7.55888L3.53151 9.00193ZM4.13183 10.4512L5.44172 11.1821L5.44172 11.1821L4.13183 10.4512ZM5.54878 11.8682L6.27966 13.1781L6.27967 13.1781L5.54878 11.8682ZM6.99807 12.4685L8.44112 12.0591L6.99807 12.4685ZM9.00193 12.4685L7.55888 12.0591L7.55888 12.0591L9.00193 12.4685ZM10.4512 11.8682L9.72033 13.1781L9.72034 13.1781L10.4512 11.8682ZM11.8682 10.4512L13.1781 9.72034L13.1781 9.72033L11.8682 10.4512ZM12.4685 9.00193L12.0591 7.55888L12.0591 7.55888L12.4685 9.00193ZM12.4685 6.99807L12.8779 5.55502L12.8779 5.55502L12.4685 6.99807ZM11.8682 5.54878L13.1781 6.27967L13.1781 6.27966L11.8682 5.54878ZM10.4512 4.13183L11.1821 5.44172L11.1821 5.44172L10.4512 4.13183ZM9.00193 3.53151L7.55888 3.94092L7.55888 3.94092L9.00193 3.53151ZM11.2062 4.16315L10.2438 5.31367L11.2062 4.16315ZM11.8369 4.79379L12.9874 3.83134L11.8369 4.79379ZM12.9805 7.55495L14.4747 7.42315L12.9805 7.55495ZM12.9805 8.44505L14.4747 8.57685V8.57684L12.9805 8.44505ZM8.44505 12.9805L8.57685 14.4747L8.44505 12.9805ZM4.79379 11.8369L5.75624 10.6863L4.79379 11.8369ZM7.55495 12.9805L7.42315 14.4747H7.42316L7.55495 12.9805ZM4.79379 4.16315L3.83134 3.01263L4.79379 4.16315ZM3.01954 7.55495L1.52534 7.42315L3.01954 7.55495ZM8.44111 3.94093L8.48102 3.80029L5.59492 2.98147L5.55502 3.1221L8.44111 3.94093ZM4.81788 5.44172C6.22695 6.22795 8.00071 5.49323 8.44112 3.94092L5.55502 3.12211C5.6431 2.81164 5.99785 2.6647 6.27967 2.82195L4.81788 5.44172ZM4.69023 5.37049L4.81789 5.44172L6.27967 2.82195L6.15201 2.75072L4.69023 5.37049ZM5.31367 5.75624C5.44776 5.59594 5.59594 5.44776 5.75624 5.31367L3.83134 3.01263C3.53477 3.26072 3.26072 3.53477 3.01263 3.83134L5.31367 5.75624ZM5.44172 4.81788L5.37048 4.69023L2.75072 6.15201L2.82195 6.27967L5.44172 4.81788ZM3.94092 8.44112C5.49324 8.00071 6.22795 6.22695 5.44172 4.81788L2.82195 6.27967C2.6647 5.99786 2.81164 5.6431 3.12211 5.55502L3.94092 8.44112ZM3.80029 8.48102L3.94092 8.44112L3.12211 5.55502L2.98147 5.59492L3.80029 8.48102ZM4.5 8C4.5 7.89407 4.50466 7.7896 4.51374 7.68675L1.52534 7.42315C1.50855 7.61354 1.5 7.80596 1.5 8H4.5ZM4.51374 8.31325C4.50466 8.2104 4.5 8.10593 4.5 8H1.5C1.5 8.19404 1.50855 8.38646 1.52534 8.57685L4.51374 8.31325ZM3.94092 7.55888L3.80029 7.51898L2.98147 10.4051L3.12211 10.445L3.94092 7.55888ZM5.44172 11.1821C6.22795 9.77305 5.49324 7.99929 3.94092 7.55888L3.12211 10.445C2.81164 10.3569 2.6647 10.0021 2.82195 9.72033L5.44172 11.1821ZM5.37049 11.3098L5.44172 11.1821L2.82195 9.72033L2.75072 9.84799L5.37049 11.3098ZM5.75624 10.6863C5.59594 10.5522 5.44776 10.4041 5.31367 10.2438L3.01263 12.1687C3.26072 12.4652 3.53477 12.7393 3.83134 12.9874L5.75624 10.6863ZM4.81789 10.5583L4.69023 10.6295L6.15201 13.2493L6.27966 13.1781L4.81789 10.5583ZM8.44112 12.0591C8.00071 10.5068 6.22695 9.77205 4.81788 10.5583L6.27967 13.1781C5.99786 13.3353 5.6431 13.1884 5.55502 12.8779L8.44112 12.0591ZM8.48102 12.1997L8.44112 12.0591L5.55502 12.8779L5.59492 13.0185L8.48102 12.1997ZM8 11.5C7.89407 11.5 7.7896 11.4953 7.68675 11.4863L7.42316 14.4747C7.61355 14.4915 7.80596 14.5 8 14.5V11.5ZM8.31326 11.4863C8.2104 11.4953 8.10593 11.5 8 11.5V14.5C8.19404 14.5 8.38645 14.4915 8.57685 14.4747L8.31326 11.4863ZM7.55888 12.0591L7.51898 12.1997L10.4051 13.0185L10.445 12.8779L7.55888 12.0591ZM11.1821 10.5583C9.77305 9.77205 7.99929 10.5068 7.55888 12.0591L10.445 12.8779C10.3569 13.1884 10.0021 13.3353 9.72033 13.1781L11.1821 10.5583ZM11.3098 10.6295L11.1821 10.5583L9.72034 13.1781L9.84799 13.2493L11.3098 10.6295ZM10.6863 10.2438C10.5522 10.4041 10.4041 10.5522 10.2438 10.6863L12.1687 12.9874C12.4652 12.7393 12.7393 12.4652 12.9874 12.1687L10.6863 10.2438ZM10.5583 11.1821L10.6295 11.3098L13.2493 9.84799L13.1781 9.72034L10.5583 11.1821ZM12.0591 7.55888C10.5068 7.99929 9.77205 9.77305 10.5583 11.1821L13.1781 9.72033C13.3353 10.0021 13.1884 10.3569 12.8779 10.445L12.0591 7.55888ZM12.1997 7.51898L12.0591 7.55888L12.8779 10.445L13.0185 10.4051L12.1997 7.51898ZM11.5 8C11.5 8.10593 11.4953 8.2104 11.4863 8.31325L14.4747 8.57684C14.4915 8.38645 14.5 8.19404 14.5 8H11.5ZM11.4863 7.68674C11.4953 7.7896 11.5 7.89407 11.5 8H14.5C14.5 7.80596 14.4915 7.61355 14.4747 7.42315L11.4863 7.68674ZM12.0591 8.44112L12.1997 8.48102L13.0185 5.59492L12.8779 5.55502L12.0591 8.44112ZM10.5583 4.81788C9.77205 6.22695 10.5068 8.00071 12.0591 8.44112L12.8779 5.55502C13.1884 5.6431 13.3353 5.99786 13.1781 6.27967L10.5583 4.81788ZM10.6295 4.69023L10.5583 4.81789L13.1781 6.27966L13.2493 6.15201L10.6295 4.69023ZM10.2438 5.31367C10.4041 5.44776 10.5522 5.59594 10.6863 5.75624L12.9874 3.83134C12.7393 3.53477 12.4652 3.26072 12.1687 3.01263L10.2438 5.31367ZM11.1821 5.44172L11.3098 5.37049L9.84799 2.75072L9.72033 2.82195L11.1821 5.44172ZM7.55888 3.94092C7.99929 5.49324 9.77305 6.22795 11.1821 5.44172L9.72033 2.82195C10.0021 2.6647 10.3569 2.81164 10.445 3.12211L7.55888 3.94092ZM7.51898 3.80029L7.55888 3.94092L10.445 3.12211L10.4051 2.98147L7.51898 3.80029ZM8 4.5C8.10593 4.5 8.2104 4.50466 8.31325 4.51374L8.57685 1.52534C8.38646 1.50855 8.19404 1.5 8 1.5V4.5ZM7.68675 4.51374C7.7896 4.50466 7.89407 4.5 8 4.5V1.5C7.80596 1.5 7.61354 1.50855 7.42315 1.52534L7.68675 4.51374ZM10.4051 2.98147C10.1117 1.94726 9.17601 1.57819 8.57685 1.52534L8.31325 4.51374C8.2114 4.50475 8.07368 4.47077 7.92778 4.37233C7.77113 4.26665 7.59755 4.07722 7.51898 3.80029L10.4051 2.98147ZM12.1687 3.01263C11.7077 2.627 10.7858 2.22741 9.84799 2.75072L11.3098 5.37049C11.0585 5.51069 10.8019 5.52198 10.6165 5.48604C10.4437 5.45257 10.3222 5.3793 10.2438 5.31367L12.1687 3.01263ZM13.2493 6.15201C13.7726 5.21416 13.373 4.29233 12.9874 3.83134L10.6863 5.75624C10.6207 5.67778 10.5474 5.5563 10.514 5.38353C10.478 5.19806 10.4893 4.9415 10.6295 4.69022L13.2493 6.15201ZM14.4747 7.42315C14.4218 6.82398 14.0527 5.88834 13.0185 5.59492L12.1997 8.48102C11.9228 8.40245 11.7334 8.22887 11.6277 8.07222C11.5292 7.92632 11.4952 7.7886 11.4863 7.68674L14.4747 7.42315ZM13.0185 10.4051C14.0527 10.1117 14.4218 9.17601 14.4747 8.57684L11.4863 8.31325C11.4952 8.2114 11.5292 8.07368 11.6277 7.92778C11.7334 7.77113 11.9228 7.59755 12.1997 7.51898L13.0185 10.4051ZM12.9874 12.1687C13.373 11.7077 13.7726 10.7858 13.2493 9.84798L10.6295 11.3098C10.4893 11.0585 10.478 10.8019 10.514 10.6165C10.5474 10.4437 10.6207 10.3222 10.6863 10.2438L12.9874 12.1687ZM9.84798 13.2493C10.7858 13.7726 11.7077 13.373 12.1687 12.9874L10.2438 10.6863C10.3222 10.6207 10.4437 10.5474 10.6165 10.514C10.8019 10.478 11.0585 10.4893 11.3098 10.6295L9.84798 13.2493ZM8.57685 14.4747C9.17602 14.4218 10.1117 14.0527 10.4051 13.0185L7.51898 12.1997C7.59755 11.9228 7.77113 11.7334 7.92778 11.6277C8.07368 11.5292 8.2114 11.4952 8.31326 11.4863L8.57685 14.4747ZM3.83134 12.9874C4.29233 13.373 5.21416 13.7726 6.15201 13.2493L4.69022 10.6295C4.9415 10.4893 5.19806 10.478 5.38353 10.514C5.5563 10.5474 5.67778 10.6207 5.75624 10.6863L3.83134 12.9874ZM2.75072 9.84799C2.22741 10.7858 2.627 11.7077 3.01263 12.1687L5.31367 10.2438C5.3793 10.3222 5.45257 10.4437 5.48604 10.6165C5.52198 10.8019 5.51069 11.0585 5.37049 11.3098L2.75072 9.84799ZM8.48102 3.80029C8.40245 4.07722 8.22887 4.26665 8.07222 4.37233C7.92632 4.47077 7.7886 4.50475 7.68675 4.51374L7.42315 1.52534C6.82399 1.57819 5.88834 1.94726 5.59492 2.98147L8.48102 3.80029ZM5.59492 13.0185C5.88834 14.0527 6.82399 14.4218 7.42316 14.4747L7.68675 11.4863C7.7886 11.4952 7.92632 11.5292 8.07222 11.6277C8.22887 11.7334 8.40245 11.9228 8.48102 12.1997L5.59492 13.0185ZM1.52534 8.57685C1.57819 9.17601 1.94726 10.1117 2.98147 10.4051L3.80029 7.51898C4.07722 7.59755 4.26665 7.77113 4.37233 7.92778C4.47077 8.07368 4.50475 8.2114 4.51374 8.31325L1.52534 8.57685ZM6.15201 2.75072C5.21416 2.22741 4.29233 2.627 3.83134 3.01263L5.75624 5.31367C5.67778 5.3793 5.5563 5.45257 5.38353 5.48604C5.19806 5.52198 4.9415 5.51069 4.69023 5.37049L6.15201 2.75072ZM2.98147 5.59492C1.94726 5.88834 1.57819 6.82399 1.52534 7.42315L4.51374 7.68675C4.50475 7.7886 4.47077 7.92632 4.37233 8.07222C4.26665 8.22887 4.07722 8.40245 3.80029 8.48102L2.98147 5.59492ZM3.01263 3.83134C2.627 4.29233 2.22741 5.21416 2.75072 6.15201L5.37048 4.69023C5.51069 4.9415 5.52198 5.19805 5.48604 5.38353C5.45257 5.5563 5.3793 5.67778 5.31367 5.75624L3.01263 3.83134Z" fill="#1E1915" mask="url(#path-1-inside-1_103_1441)"/>
<circle cx="8" cy="8" r="3" stroke="#1E1915" stroke-width="2"/>
</svg>
