<svg width="32" height="32" viewBox="0 0 32 32" fill="none" xmlns="http://www.w3.org/2000/svg">
<g clip-path="url(#clip0_187_16763)">
<path d="M32 16C32 24.8366 24.8366 32 16 32C7.16344 32 0 24.8366 0 16C0 7.16344 7.16344 0 16 0C24.8366 0 32 7.16344 32 16ZM1.92 16C1.92 23.7762 8.22383 30.08 16 30.08C23.7762 30.08 30.08 23.7762 30.08 16C30.08 8.22383 23.7762 1.92 16 1.92C8.22383 1.92 1.92 8.22383 1.92 16Z" fill="#F4A100"/>
<path fill-rule="evenodd" clip-rule="evenodd" d="M10.6666 15.1109C11.8939 15.1109 12.8888 13.718 12.8888 11.9998C12.8888 10.2816 11.8939 8.88867 10.6666 8.88867C9.43926 8.88867 8.44434 10.2816 8.44434 11.9998C8.44434 13.718 9.43926 15.1109 10.6666 15.1109ZM22.6532 24.3368C22.6132 24.1777 21.6149 20.4443 15.9998 20.4443C10.3838 20.4443 9.3865 24.1777 9.3465 24.3368C9.29761 24.5297 9.38472 24.7297 9.55716 24.8292C9.7305 24.9279 9.94739 24.8986 10.0905 24.7608C10.1074 24.7439 11.8274 23.111 15.9998 23.111C20.1723 23.111 21.8932 24.7439 21.9092 24.7599C21.9945 24.8443 22.1083 24.8888 22.2221 24.8888C22.2967 24.8888 22.3723 24.8701 22.4407 24.8319C22.6149 24.7323 22.7021 24.5306 22.6532 24.3368ZM23.5558 11.9998C23.5558 13.718 22.5609 15.1109 21.3336 15.1109C20.1063 15.1109 19.1113 13.718 19.1113 11.9998C19.1113 10.2816 20.1063 8.88867 21.3336 8.88867C22.5609 8.88867 23.5558 10.2816 23.5558 11.9998Z" fill="#F4A100"/>
</g>
<defs>
<clipPath id="clip0_187_16763">
<rect width="32" height="32" fill="white"/>
</clipPath>
</defs>
</svg>
