<svg width="32" height="32" viewBox="0 0 32 32" fill="none" xmlns="http://www.w3.org/2000/svg">
<g clip-path="url(#clip0_105_2629)">
<path d="M32 16C32 24.8366 24.8366 32 16 32C7.16344 32 0 24.8366 0 16C0 7.16344 7.16344 0 16 0C24.8366 0 32 7.16344 32 16ZM1.92 16C1.92 23.7762 8.22383 30.08 16 30.08C23.7762 30.08 30.08 23.7762 30.08 16C30.08 8.22383 23.7762 1.92 16 1.92C8.22383 1.92 1.92 8.22383 1.92 16Z" fill="#46AD60"/>
<path fill-rule="evenodd" clip-rule="evenodd" d="M10.6666 15.1109C11.8939 15.1109 12.8888 13.718 12.8888 11.9998C12.8888 10.2816 11.8939 8.88867 10.6666 8.88867C9.43926 8.88867 8.44434 10.2816 8.44434 11.9998C8.44434 13.718 9.43926 15.1109 10.6666 15.1109ZM9.34649 20.9963C9.38649 21.1554 10.3847 24.8888 15.9998 24.8888C21.6158 24.8888 22.6132 21.1554 22.6532 20.9963C22.702 20.8034 22.6149 20.6034 22.4425 20.5039C22.2692 20.4052 22.0523 20.4346 21.9092 20.5723C21.8923 20.5892 20.1723 22.2221 15.9998 22.2221C11.8274 22.2221 10.1065 20.5892 10.0905 20.5732C10.0052 20.4888 9.89138 20.4443 9.7776 20.4443C9.70293 20.4443 9.62738 20.463 9.55893 20.5012C9.38471 20.6008 9.2976 20.8026 9.34649 20.9963ZM23.5558 11.9998C23.5558 13.718 22.5609 15.1109 21.3336 15.1109C20.1063 15.1109 19.1113 13.718 19.1113 11.9998C19.1113 10.2816 20.1063 8.88867 21.3336 8.88867C22.5609 8.88867 23.5558 10.2816 23.5558 11.9998Z" fill="#46AD60"/>
</g>
<defs>
<clipPath id="clip0_105_2629">
<rect width="32" height="32" fill="white"/>
</clipPath>
</defs>
</svg>
