<svg width="24" height="24" viewBox="0 0 24 24" fill="none" xmlns="http://www.w3.org/2000/svg">
<path fill-rule="evenodd" clip-rule="evenodd" d="M14.25 2.25H15H21C21.4142 2.25 21.75 2.58579 21.75 3V9V9.75H20.25V9V4.81066L13.5303 11.5303L13 12.0607L11.9393 11L12.4697 10.4697L19.1893 3.75H15H14.25V2.25ZM8.94513 4.25L9 4.25H10H10.75V5.75H10H9C7.56458 5.75 6.56347 5.75159 5.80812 5.85315C5.07435 5.9518 4.68577 6.13225 4.40901 6.40901C4.13225 6.68577 3.9518 7.07435 3.85315 7.80812C3.75159 8.56347 3.75 9.56458 3.75 11V15C3.75 16.4354 3.75159 17.4365 3.85315 18.1919C3.9518 18.9257 4.13225 19.3142 4.40901 19.591C4.68577 19.8678 5.07435 20.0482 5.80812 20.1469C6.56347 20.2484 7.56459 20.25 9 20.25H13C14.4354 20.25 15.4365 20.2484 16.1919 20.1469C16.9257 20.0482 17.3142 19.8678 17.591 19.591C17.8678 19.3142 18.0482 18.9257 18.1469 18.1919C18.2484 17.4365 18.25 16.4354 18.25 15V14V13.25H19.75V14V15V15.0549C19.75 16.4225 19.75 17.5248 19.6335 18.3918C19.5125 19.2919 19.2536 20.0497 18.6517 20.6517C18.0497 21.2536 17.2919 21.5125 16.3918 21.6335C15.5248 21.75 14.4225 21.75 13.0549 21.75H13H9H8.94513C7.57754 21.75 6.47522 21.75 5.60825 21.6335C4.70814 21.5125 3.95027 21.2536 3.34835 20.6517C2.74643 20.0497 2.48754 19.2919 2.36652 18.3918C2.24996 17.5248 2.24998 16.4225 2.25 15.0549L2.25 15V11L2.25 10.9451C2.24998 9.57754 2.24996 8.47522 2.36652 7.60825C2.48754 6.70814 2.74643 5.95027 3.34835 5.34835C3.95027 4.74643 4.70814 4.48754 5.60825 4.36652C6.47522 4.24996 7.57754 4.24998 8.94513 4.25Z" fill="#1E1915"/>
</svg>
