<svg width="24" height="24" viewBox="0 0 24 24" fill="none" xmlns="http://www.w3.org/2000/svg">
<path d="M23 12C23 18.0751 18.0751 23 12 23C5.92487 23 1 18.0751 1 12C1 5.92487 5.92487 1 12 1C18.0751 1 23 5.92487 23 12ZM2.54 12C2.54 17.2246 6.77539 21.46 12 21.46C17.2246 21.46 21.46 17.2246 21.46 12C21.46 6.77539 17.2246 2.54 12 2.54C6.77539 2.54 2.54 6.77539 2.54 12Z" fill="#EBEBEB"/>
<path d="M12 1.77C12 1.34474 12.3452 0.997194 12.7694 1.02693C14.8197 1.17068 16.7945 1.88667 18.4656 3.10081C20.1368 4.31495 21.4279 5.97182 22.1982 7.87738C22.3576 8.27164 22.1338 8.70734 21.7293 8.83876C21.3249 8.97017 20.8934 8.74727 20.7295 8.35485C20.0627 6.75797 18.9684 5.36963 17.5604 4.3467C16.1525 3.32377 14.4939 2.712 12.7692 2.57131C12.3453 2.53674 12 2.19526 12 1.77Z" fill="#1E1915"/>
</svg>
