<svg width="24" height="24" viewBox="0 0 24 24" fill="none" xmlns="http://www.w3.org/2000/svg">
<path fill-rule="evenodd" clip-rule="evenodd" d="M17.8029 3.2283C17.2824 3.25279 16.616 3.34098 15.6647 3.46782L9.07281 4.34674C8.70693 4.39553 8.57927 4.41353 8.47654 4.4381C7.54695 4.66047 6.85931 5.44588 6.76175 6.39671C6.75097 6.50178 6.75 6.6307 6.75 6.99981V7.74981H5.25V6.99981C5.25 6.98522 5.25 6.97084 5.25 6.95667C5.24996 6.6469 5.24993 6.43517 5.26958 6.2436C5.43218 4.65889 6.57825 3.34987 8.12757 2.97926C8.31487 2.93446 8.52474 2.9065 8.83181 2.8656C8.84585 2.86373 8.8601 2.86183 8.87456 2.8599L15.5006 1.97643C16.4099 1.85518 17.14 1.75783 17.7324 1.72995C18.3396 1.70138 18.8788 1.74021 19.3856 1.94172C20.1847 2.25948 20.8504 2.84227 21.271 3.59241C21.5377 4.06813 21.6474 4.59744 21.6994 5.20311C21.75 5.79396 21.75 6.53059 21.75 7.44796V16.5517C21.75 17.469 21.75 18.2057 21.6994 18.7965C21.6474 19.4022 21.5377 19.9315 21.271 20.4072C20.8504 21.1574 20.1847 21.7401 19.3856 22.0579C18.8788 22.2594 18.3396 22.2982 17.7324 22.2697C17.14 22.2418 16.4099 22.1444 15.5006 22.0232L8.87456 21.1397L8.83158 21.134C8.52469 21.0931 8.31481 21.0652 8.12757 21.0204C6.57826 20.6498 5.43218 19.3407 5.26959 17.756C5.24993 17.5645 5.24996 17.3527 5.25 17.0429L5.25 16.2498H6.75V16.9998C6.75 17.3689 6.75097 17.4978 6.76175 17.6029C6.85931 18.5537 7.54695 19.3392 8.47654 19.5615C8.57926 19.5861 8.70696 19.6041 9.07282 19.6529L15.6647 20.5318C16.616 20.6586 17.2824 20.7468 17.8029 20.7713C18.3159 20.7955 18.61 20.7521 18.8313 20.664C19.3108 20.4734 19.7102 20.1237 19.9626 19.6736C20.0791 19.4658 20.161 19.1801 20.2048 18.6684C20.2494 18.1492 20.25 17.477 20.25 16.5173V7.48229C20.25 6.5226 20.2494 5.85044 20.2048 5.33125C20.161 4.81951 20.0791 4.5338 19.9626 4.32599C19.7102 3.87591 19.3108 3.52623 18.8313 3.33558C18.61 3.24755 18.3159 3.20416 17.8029 3.2283ZM12 6.93915L16.5303 11.4695C16.8232 11.7624 16.8232 12.2373 16.5303 12.5301L12 17.0605L10.9393 15.9998L14.1893 12.7498H2.25V11.2498H14.1893L10.9393 7.99981L12 6.93915Z" fill="#1E1915"/>
</svg>
