<svg width="100" height="40" viewBox="0 0 100 40" fill="none" xmlns="http://www.w3.org/2000/svg">
<path fill-rule="evenodd" clip-rule="evenodd" d="M0 6.5C0 4.84315 1.34315 3.5 3 3.5H3.5C5.15685 3.5 6.5 4.84315 6.5 6.5C6.5 8.15685 5.15685 9.5 3.5 9.5H3C1.34315 9.5 0 8.15685 0 6.5ZM0.5 11.9292H5.80357V35.7168H0.5V11.9292ZM10.5179 4H15.8214V15.7639C15.8553 15.839 15.8906 15.9137 15.9274 15.988C16.3864 16.9156 17.0592 17.7585 17.9074 18.4685C18.7555 19.1785 19.7625 19.7417 20.8706 20.1259C21.9788 20.5102 23.1666 20.708 24.366 20.708C25.5655 20.708 26.7533 20.5102 27.8614 20.1259C28.9696 19.7417 29.9765 19.1785 30.8247 18.4685C31.6729 17.7585 32.3457 16.9156 32.8047 15.988C32.8415 15.9136 32.8768 15.8389 32.9107 15.7637V4H38.2143V13.0619V35.7168H32.9107V22.8675C30.4854 24.5786 27.4798 25.5221 24.3661 25.5221C21.2524 25.5221 18.2468 24.5786 15.8214 22.8675V35.7168H10.5179V13.0619V4ZM94.1964 4H99.5V35.7168H94.1964V4ZM85.7158 14.7359C87.1611 16.057 88.2395 17.8034 88.9333 20.0123C89.9138 23.1338 89.7558 26.0307 88.7185 28.4765C89.1687 29.0337 89.5933 29.5113 90.0352 29.9126C90.8488 30.6515 91.4796 30.9027 92.1339 30.9027V35.7168C89.7682 35.7168 87.9681 34.6588 86.595 33.4117C86.2964 33.1405 86.0069 32.8498 85.7266 32.5474C83.3386 34.6097 80.1278 35.7168 76.8125 35.7168C71.9655 35.7168 67.2366 32.6772 67.2366 27.7876C67.2366 23.1888 71.3756 19.1725 77.3484 19.728C80.4972 20.0209 82.7891 21.5733 84.5423 23.3283C84.4823 22.7239 84.3513 22.0823 84.1381 21.4036C83.6534 19.8603 82.9823 18.8811 82.2639 18.2243C81.5421 17.5645 80.6449 17.1139 79.5274 16.814C77.5135 16.2735 75.1866 16.2905 72.4377 16.3106C71.899 16.3145 71.3442 16.3186 70.7723 16.3186V11.5044C71.2303 11.5044 71.7084 11.4997 72.2013 11.4948L72.2048 11.4947C74.9309 11.4675 78.1118 11.4358 80.8744 12.1772C82.5929 12.6383 84.2738 13.4178 85.7158 14.7359ZM82.6683 28.7011C80.7845 26.2776 79.2106 24.7379 76.8659 24.5198C73.7048 24.2257 72.2455 26.1563 72.2455 27.7876C72.2455 29.1281 73.7042 30.9027 76.8125 30.9027C79.1606 30.9027 81.2624 30.062 82.6683 28.7011ZM65.7522 25.4942C64.7764 31.4474 59.4146 36 52.9464 36C45.7864 36 39.9821 30.4214 39.9821 23.5398C39.9821 16.6583 45.7864 11.0796 52.9464 11.0796C59.6398 11.0796 65.1484 15.9548 65.838 22.2121L57.0714 24.8142V24.8229L46.3056 27.5954C47.7293 29.5882 50.172 30.9027 52.9464 30.9027C55.8753 30.9027 58.4346 29.4377 59.8154 27.2563L65.7522 25.4942ZM59.5872 19.4842L44.9975 23.2415C45.1666 19.3135 48.6607 16.177 52.9464 16.177C55.7208 16.177 58.1636 17.4915 59.5872 19.4842Z" fill="#1E1915"/>
</svg>
