<svg width="24" height="24" viewBox="0 0 24 24" fill="none" xmlns="http://www.w3.org/2000/svg">
<path fill-rule="evenodd" clip-rule="evenodd" d="M1.25 7C1.25 4.92893 2.92893 3.25 5 3.25H19C21.0711 3.25 22.75 4.92893 22.75 7V14.0549C22.75 15.4225 22.75 16.5248 22.6335 17.3918C22.5125 18.2919 22.2536 19.0497 21.6517 19.6516C21.0497 20.2536 20.2919 20.5125 19.3918 20.6335C18.5248 20.75 17.4225 20.75 16.0549 20.75H7.94513C6.57754 20.75 5.47522 20.75 4.60825 20.6335C3.70814 20.5125 2.95027 20.2536 2.34835 19.6516C1.74643 19.0497 1.48754 18.2919 1.36652 17.3918C1.24996 16.5248 1.24998 15.4225 1.25 14.0549L1.25 7ZM2.78017 6.63063L12 13.0845L21.2198 6.63063C21.0436 5.56372 20.1168 4.75 19 4.75H5C3.88316 4.75 2.95638 5.56372 2.78017 6.63063ZM21.25 8.44049L12 14.9155L2.75 8.44049V14C2.75 15.4354 2.75159 16.4365 2.85315 17.1919C2.9518 17.9257 3.13225 18.3142 3.40901 18.591C3.68577 18.8678 4.07435 19.0482 4.80812 19.1469C5.56347 19.2484 6.56459 19.25 8 19.25H16C17.4354 19.25 18.4365 19.2484 19.1919 19.1469C19.9257 19.0482 20.3142 18.8678 20.591 18.591C20.8678 18.3142 21.0482 17.9257 21.1469 17.1919C21.2484 16.4365 21.25 15.4354 21.25 14V8.44049Z" fill="#1E1915"/>
</svg>
