<svg width="24" height="24" viewBox="0 0 24 24" fill="none" xmlns="http://www.w3.org/2000/svg">
<path fill-rule="evenodd" clip-rule="evenodd" d="M15.4578 3.2105L21.3555 6.76906C21.3621 6.77303 21.3686 6.7771 21.375 6.78127L21.3971 6.79551C21.4768 6.84697 21.5568 6.89869 21.6324 6.94984C21.6481 6.95848 21.6636 6.96774 21.6789 6.97763C21.6964 6.98893 21.7141 7.00028 21.7318 7.01169C21.9434 7.14773 22.1698 7.29327 22.3414 7.49738C22.491 7.67531 22.6035 7.88137 22.6723 8.10357C22.7512 8.35878 22.7506 8.62797 22.75 8.87833C22.75 8.89937 22.7499 8.92029 22.7499 8.94104V15.0549C22.75 16.4225 22.75 17.5248 22.6334 18.3917C22.5124 19.2919 22.2535 20.0497 21.6516 20.6516C21.0497 21.2536 20.2918 21.5125 19.3917 21.6335C18.5247 21.75 17.4224 21.75 16.0548 21.75H7.94508C6.57749 21.75 5.47517 21.75 4.6082 21.6335C3.70809 21.5125 2.95021 21.2536 2.3483 20.6516C1.74638 20.0497 1.48749 19.2919 1.36647 18.3917C1.24991 17.5248 1.24993 16.4225 1.24995 15.0549L1.24995 8.94104C1.24995 8.92028 1.2499 8.89937 1.24985 8.87833C1.24928 8.62797 1.24867 8.35878 1.32762 8.10357C1.39636 7.88137 1.50893 7.67531 1.65851 7.49738C1.8301 7.29327 2.05647 7.14773 2.26807 7.01169C2.28581 7.00028 2.30346 6.98893 2.32095 6.97763C2.32719 6.9736 2.33349 6.96966 2.33984 6.96582L2.37809 6.94268C2.45154 6.89325 2.53415 6.83988 2.61989 6.78448L2.62487 6.78127C2.66779 6.75353 2.71249 6.73074 2.7583 6.71274L8.54335 3.21405C9.27066 2.77417 9.86454 2.415 10.3813 2.17015C10.9212 1.9143 11.432 1.75524 11.9998 1.75494C12.5676 1.75465 13.0786 1.91319 13.6188 2.16849C14.1358 2.4128 14.73 2.77137 15.4578 3.2105ZM2.74995 9.45545V15C2.74995 16.4354 2.75154 17.4365 2.8531 18.1919C2.95175 18.9256 3.1322 19.3142 3.40896 19.591C3.68572 19.8677 4.07429 20.0482 4.80807 20.1468C5.56342 20.2484 6.56453 20.25 7.99995 20.25H15.9999C17.4354 20.25 18.4365 20.2484 19.1918 20.1468C19.9256 20.0482 20.3142 19.8677 20.5909 19.591C20.8677 19.3142 21.0481 18.9256 21.1468 18.1919C21.2484 17.4365 21.2499 16.4354 21.2499 15V9.45545L14.1509 14.0421C14.1187 14.0629 14.087 14.0835 14.0556 14.1038C13.5185 14.4515 13.0975 14.724 12.6274 14.8337C12.2147 14.93 11.7852 14.93 11.3725 14.8337C10.9024 14.724 10.4814 14.4515 9.94429 14.1038C9.91292 14.0835 9.88116 14.0629 9.84897 14.0421L2.74995 9.45545ZM20.5707 8.04741L14.7158 4.51471C13.9471 4.05089 13.4178 3.73258 12.9779 3.52467C12.5534 3.32406 12.2686 3.25481 12.0006 3.25494C11.7326 3.25508 11.4479 3.32463 11.0236 3.52567C10.5838 3.73403 10.0549 4.05288 9.28667 4.51749L3.39044 8.08342C3.40596 8.09345 3.42209 8.10388 3.43889 8.11473L10.663 12.7822C11.3421 13.221 11.5307 13.3303 11.7133 13.3729C11.9018 13.4169 12.0981 13.4169 12.2866 13.3729C12.4692 13.3303 12.6578 13.221 13.3369 12.7822L20.561 8.11473C20.5809 8.10189 20.5998 8.08966 20.6179 8.07795C20.6028 8.06816 20.587 8.05799 20.5707 8.04741Z" fill="#1E1915"/>
</svg>
