<svg width="24" height="24" viewBox="0 0 24 24" fill="none" xmlns="http://www.w3.org/2000/svg">
<path fill-rule="evenodd" clip-rule="evenodd" d="M6.75 8C6.75 5.1005 9.1005 2.75 12 2.75C14.8995 2.75 17.25 5.1005 17.25 8C17.25 9.72439 16.3079 11.0396 15.0215 12.3795C14.7138 12.6999 14.3945 13.0139 14.0684 13.3347L14.0317 13.3708C13.6958 13.7011 13.3529 14.0391 13.0263 14.3833C12.666 14.763 12.3143 15.1617 12 15.5861C11.6857 15.1617 11.334 14.763 10.9737 14.3833C10.6471 14.0391 10.3042 13.7011 9.9683 13.3708L9.93156 13.3346C9.60546 13.0139 9.28621 12.6999 8.97851 12.3795C7.6921 11.0396 6.75 9.72439 6.75 8ZM12 1.25C8.27208 1.25 5.25 4.27208 5.25 8C5.25 10.3393 6.5579 12.0241 7.89649 13.4183C8.2195 13.7548 8.55261 14.0823 8.87466 14.3991L8.87468 14.3991L8.91647 14.4402C9.25443 14.7726 9.57946 15.0932 9.88564 15.4158C10.5011 16.0645 11.0037 16.6844 11.3292 17.3354C11.4562 17.5895 11.7159 17.75 12 17.75C12.2841 17.75 12.5438 17.5895 12.6708 17.3354C12.9963 16.6844 13.4989 16.0645 14.1144 15.4158C14.4205 15.0932 14.7456 14.7726 15.0835 14.4402L15.1253 14.3991C15.4474 14.0823 15.7805 13.7548 16.1035 13.4183C17.4421 12.0241 18.75 10.3393 18.75 8C18.75 4.27208 15.7279 1.25 12 1.25ZM5.30271 14.9726L5.98891 14.6698L5.38349 13.2974L4.69729 13.6002C3.71369 14.0341 2.87045 14.5726 2.26289 15.2099C1.65167 15.851 1.25 16.6264 1.25 17.5C1.25 19.2216 2.76457 20.5305 4.62116 21.3659C6.54815 22.2331 9.15764 22.75 12 22.75C14.8424 22.75 17.4518 22.2331 19.3788 21.3659C21.2354 20.5305 22.75 19.2216 22.75 17.5C22.75 16.6264 22.3483 15.851 21.7371 15.2099C21.1295 14.5726 20.2863 14.0341 19.3027 13.6002L18.6165 13.2974L18.0111 14.6698L18.6973 14.9726C19.5651 15.3554 20.2218 15.7943 20.6514 16.2449C21.0773 16.6917 21.25 17.1147 21.25 17.5C21.25 18.2637 20.526 19.2048 18.7633 19.998C17.071 20.7596 14.6805 21.25 12 21.25C9.31952 21.25 6.929 20.7596 5.23671 19.998C3.47401 19.2048 2.75 18.2637 2.75 17.5C2.75 17.1147 2.92265 16.6917 3.34859 16.2449C3.77819 15.7943 4.43494 15.3554 5.30271 14.9726ZM10.75 8C10.75 8.69036 11.3096 9.25 12 9.25C12.6904 9.25 13.25 8.69036 13.25 8C13.25 7.30964 12.6904 6.75 12 6.75C11.3096 6.75 10.75 7.30964 10.75 8ZM12 10.75C10.4812 10.75 9.25 9.51878 9.25 8C9.25 6.48122 10.4812 5.25 12 5.25C13.5188 5.25 14.75 6.48122 14.75 8C14.75 9.51878 13.5188 10.75 12 10.75Z" fill="#1E1915"/>
</svg>
