<svg width="24" height="24" viewBox="0 0 24 24" fill="none" xmlns="http://www.w3.org/2000/svg">
<path fill-rule="evenodd" clip-rule="evenodd" d="M9.95525 1.25C9.97013 1.25001 9.98504 1.25001 10 1.25001L14.0448 1.25C14.4776 1.24995 14.8744 1.24991 15.1972 1.29331C15.5527 1.3411 15.9284 1.45355 16.2374 1.76257C16.5465 2.07159 16.6589 2.44732 16.7067 2.8028C16.7251 2.93998 16.7357 3.09053 16.7418 3.25152C17.3408 3.2557 17.859 3.27137 18.2945 3.32992C18.9223 3.41432 19.4891 3.59999 19.9445 4.05546C20.4 4.51093 20.5857 5.07773 20.6701 5.70553C20.7501 6.30031 20.75 7.04953 20.75 7.94801V18.052C20.75 18.9505 20.7501 19.6997 20.6701 20.2945C20.5857 20.9223 20.4 21.4891 19.9445 21.9446C19.4891 22.4 18.9223 22.5857 18.2945 22.6701C17.6997 22.7501 16.9505 22.75 16.052 22.75H7.94801C7.04953 22.75 6.30031 22.7501 5.70552 22.6701C5.07773 22.5857 4.51093 22.4 4.05546 21.9446C3.59999 21.4891 3.41432 20.9223 3.32991 20.2945C3.24995 19.6997 3.24997 18.9505 3.25 18.052V7.94801C3.24997 7.04953 3.24995 6.30031 3.32991 5.70553C3.41432 5.07773 3.59999 4.51093 4.05546 4.05546C4.51093 3.59999 5.07773 3.41432 5.70552 3.32992C6.14097 3.27137 6.6592 3.2557 7.25818 3.25152C7.26426 3.09053 7.27486 2.93998 7.2933 2.8028C7.34109 2.44732 7.45354 2.07159 7.76257 1.76257C8.07159 1.45355 8.44731 1.3411 8.80279 1.29331C9.12561 1.24991 9.52244 1.24995 9.95525 1.25ZM7.2583 4.75176C6.68474 4.75591 6.25257 4.76987 5.90539 4.81654C5.44393 4.87858 5.24644 4.98581 5.11612 5.11612C4.9858 5.24644 4.87858 5.44394 4.81654 5.9054C4.7516 6.38844 4.75 7.036 4.75 8.00001V18C4.75 18.964 4.7516 19.6116 4.81654 20.0946C4.87858 20.5561 4.9858 20.7536 5.11612 20.8839C5.24644 21.0142 5.44393 21.1214 5.90539 21.1835C6.38843 21.2484 7.03599 21.25 8 21.25H16C16.964 21.25 17.6116 21.2484 18.0946 21.1835C18.5561 21.1214 18.7536 21.0142 18.8839 20.8839C19.0142 20.7536 19.1214 20.5561 19.1835 20.0946C19.2484 19.6116 19.25 18.964 19.25 18V8.00001C19.25 7.036 19.2484 6.38844 19.1835 5.9054C19.1214 5.44394 19.0142 5.24644 18.8839 5.11612C18.7536 4.98581 18.5561 4.87858 18.0946 4.81654C17.7474 4.76987 17.3153 4.75591 16.7417 4.75176C16.7356 4.91152 16.725 5.06096 16.7067 5.19721C16.6589 5.55269 16.5465 5.92842 16.2374 6.23744C15.9284 6.54647 15.5527 6.65891 15.1972 6.70671C14.8744 6.75011 14.4776 6.75006 14.0447 6.75001C14.0299 6.75001 14.015 6.75001 14 6.75001H10C9.98505 6.75001 9.97013 6.75001 9.95526 6.75001C9.52244 6.75006 9.12561 6.75011 8.80279 6.70671C8.44731 6.65891 8.07159 6.54647 7.76257 6.23744C7.45354 5.92842 7.34109 5.55269 7.2933 5.19721C7.27498 5.06096 7.26441 4.91152 7.2583 4.75176ZM8.82328 2.82318C8.82282 2.82363 8.823 2.82352 8.82328 2.82318V2.82318ZM8.82567 2.82187L8.82328 2.82318L8.82186 2.82568C8.82085 2.82761 8.81924 2.83093 8.81716 2.83597C8.8082 2.85775 8.79291 2.90611 8.77993 3.00267C8.7516 3.21339 8.75 3.5074 8.75 4.00001C8.75 4.49261 8.7516 4.78662 8.77993 4.99734C8.79291 5.0939 8.8082 5.14226 8.81716 5.16404C8.81924 5.16909 8.82085 5.1724 8.82186 5.17434L8.82324 5.17677L8.82567 5.17815C8.82761 5.17916 8.83092 5.18077 8.83597 5.18285C8.85775 5.19181 8.90611 5.2071 9.00267 5.22008C9.21339 5.24841 9.5074 5.25001 10 5.25001H14C14.4926 5.25001 14.7866 5.24841 14.9973 5.22008C15.0939 5.2071 15.1423 5.19181 15.164 5.18285C15.1691 5.18077 15.1724 5.17916 15.1743 5.17815L15.1768 5.17677L15.1781 5.17434C15.1792 5.1724 15.1808 5.16909 15.1828 5.16404C15.1918 5.14226 15.2071 5.0939 15.2201 4.99734C15.2484 4.78662 15.25 4.49261 15.25 4.00001C15.25 3.5074 15.2484 3.21339 15.2201 3.00267C15.2071 2.90611 15.1918 2.85775 15.1828 2.83597C15.1808 2.83093 15.1792 2.82761 15.1781 2.82568L15.1768 2.82324L15.1743 2.82187C15.1724 2.82086 15.1691 2.81924 15.164 2.81717C15.1423 2.80821 15.0939 2.79291 14.9973 2.77993C14.7866 2.7516 14.4926 2.75001 14 2.75001H10C9.5074 2.75001 9.21339 2.7516 9.00267 2.77993C8.90611 2.79291 8.85775 2.80821 8.83597 2.81717C8.83092 2.81924 8.82761 2.82086 8.82567 2.82187ZM8.82324 5.17677C8.82297 5.17644 8.82284 5.17636 8.82324 5.17677C8.8237 5.17723 8.82358 5.17705 8.82324 5.17677ZM15.1768 5.17677C15.1767 5.17682 15.1767 5.17679 15.1768 5.17677V5.17677ZM7.25 10.25H16.75V11.75H7.25V10.25ZM7.25 15.25H16.75V16.75H7.25V15.25Z" fill="#1E1915"/>
</svg>
