<svg width="24" height="24" viewBox="0 0 24 24" fill="none" xmlns="http://www.w3.org/2000/svg">
<path fill-rule="evenodd" clip-rule="evenodd" d="M9.94805 1.25H14.052C14.9505 1.24997 15.6997 1.24995 16.2945 1.32991C16.9223 1.41432 17.4891 1.59999 17.9446 2.05546C18.4001 2.51093 18.5857 3.07773 18.6701 3.70552C18.7285 4.13963 18.7443 4.656 18.7485 5.25263C19.2416 5.25977 19.6266 5.2856 19.9706 5.37778C21.2647 5.72453 22.2755 6.73534 22.6223 8.02943C22.7505 8.50809 22.7503 9.06625 22.7501 9.88422C22.7501 9.92225 22.75 9.96083 22.75 10V15C22.75 15.0392 22.7501 15.0778 22.7501 15.1158C22.7503 15.9338 22.7505 16.4919 22.6223 16.9706C22.2755 18.2647 21.2647 19.2755 19.9706 19.6222C19.6259 19.7146 19.24 19.7403 18.7456 19.7474C18.7426 19.891 18.7376 20.0235 18.7293 20.1454C18.7076 20.4625 18.661 20.762 18.5407 21.0524C18.2616 21.7262 17.7263 22.2616 17.0524 22.5407C16.762 22.661 16.4625 22.7076 16.1454 22.7292C15.8408 22.75 15.4698 22.75 15.0253 22.75H8.97479C8.53033 22.75 8.1593 22.75 7.85468 22.7292C7.53758 22.7076 7.23806 22.661 6.94767 22.5407C6.27384 22.2616 5.73849 21.7262 5.45938 21.0524C5.3391 20.762 5.29245 20.4625 5.27082 20.1454C5.2625 20.0235 5.25752 19.891 5.25453 19.7474C4.76007 19.7403 4.37416 19.7146 4.02948 19.6222C2.73538 19.2755 1.72458 18.2647 1.37783 16.9706C1.24957 16.4919 1.24975 15.9338 1.25002 15.1158C1.25004 15.0778 1.25005 15.0392 1.25005 15V10C1.25005 9.96083 1.25004 9.92224 1.25002 9.88421C1.24975 9.06624 1.24957 8.50809 1.37783 8.02943C1.72458 6.73534 2.73538 5.72453 4.02948 5.37778C4.37348 5.2856 4.75855 5.25977 5.2516 5.25263C5.25584 4.656 5.2716 4.13963 5.32996 3.70552C5.41437 3.07773 5.60004 2.51093 6.05551 2.05546C6.51098 1.59999 7.07778 1.41432 7.70557 1.32991C8.30035 1.24995 9.04957 1.24997 9.94805 1.25ZM6.75186 5.25H17.2482C17.244 4.68056 17.23 4.25089 17.1835 3.90539C17.1215 3.44393 17.0142 3.24644 16.8839 3.11612C16.7536 2.9858 16.5561 2.87858 16.0947 2.81654C15.6116 2.7516 14.9641 2.75 14 2.75H10C9.03604 2.75 8.38848 2.7516 7.90544 2.81654C7.44398 2.87858 7.24648 2.9858 7.11617 3.11612C6.98585 3.24644 6.87863 3.44393 6.81659 3.90539C6.77013 4.25089 6.75609 4.68056 6.75186 5.25ZM5.25466 18.2464C5.25766 18.1052 5.26262 17.9748 5.27082 17.8546C5.29245 17.5375 5.3391 17.238 5.45938 16.9476C5.73849 16.2738 6.27384 15.7384 6.94767 15.4593C7.23806 15.3391 7.53758 15.2924 7.85468 15.2708C8.1593 15.25 8.53033 15.25 8.97479 15.25H15.0253C15.4698 15.25 15.8408 15.25 16.1454 15.2708C16.4625 15.2924 16.762 15.3391 17.0524 15.4593C17.7263 15.7384 18.2616 16.2738 18.5407 16.9476C18.661 17.238 18.7076 17.5375 18.7293 17.8546C18.7375 17.9748 18.7424 18.1052 18.7454 18.2464C19.1835 18.2398 19.4019 18.2217 19.5824 18.1733C20.3589 17.9653 20.9653 17.3588 21.1734 16.5823C21.2436 16.3203 21.25 15.9783 21.25 15V10C21.25 9.02174 21.2436 8.67974 21.1734 8.41766C20.9653 7.6412 20.3589 7.03472 19.5824 6.82667C19.3203 6.75644 18.9783 6.75 18 6.75H6.00005C5.02179 6.75 4.67979 6.75644 4.41771 6.82667C3.64125 7.03472 3.03477 7.6412 2.82672 8.41766C2.75649 8.67974 2.75005 9.02174 2.75005 10V15C2.75005 15.9783 2.75649 16.3203 2.82672 16.5823C3.03477 17.3588 3.64125 17.9653 4.41771 18.1733C4.5982 18.2217 4.81661 18.2398 5.25466 18.2464ZM19 9.75H15V8.25H19V9.75ZM7.95679 16.7673C7.71606 16.7837 7.59885 16.8132 7.5217 16.8452C7.21541 16.972 6.97207 17.2154 6.8452 17.5216C6.81324 17.5988 6.78376 17.716 6.76734 17.9567C6.75046 18.2042 6.75005 18.5238 6.75005 19C6.75005 19.4762 6.75046 19.7958 6.76734 20.0433C6.78376 20.284 6.81324 20.4012 6.8452 20.4784C6.97207 20.7846 7.21541 21.028 7.5217 21.1549C7.59885 21.1868 7.71606 21.2163 7.95679 21.2327C8.20426 21.2496 8.52385 21.25 9.00005 21.25H15C15.4763 21.25 15.7958 21.2496 16.0433 21.2327C16.284 21.2163 16.4013 21.1868 16.4784 21.1549C16.7847 21.028 17.028 20.7846 17.1549 20.4784C17.1869 20.4012 17.2163 20.284 17.2328 20.0433C17.2496 19.7958 17.25 19.4762 17.25 19C17.25 18.5238 17.2496 18.2042 17.2328 17.9567C17.2163 17.716 17.1869 17.5988 17.1549 17.5216C17.028 17.2154 16.7847 16.972 16.4784 16.8452C16.4013 16.8132 16.284 16.7837 16.0433 16.7673C15.7958 16.7504 15.4763 16.75 15 16.75H9.00005C8.52385 16.75 8.20426 16.7504 7.95679 16.7673Z" fill="#1E1915"/>
</svg>
