<svg width="24" height="24" viewBox="0 0 24 24" fill="none" xmlns="http://www.w3.org/2000/svg">
<path fill-rule="evenodd" clip-rule="evenodd" d="M11 0.939331L14.5304 4.46966C14.8233 4.76255 14.8233 5.23743 14.5304 5.53032L11 9.06065L9.93939 7.99999L12.1894 5.74999H8.00005C6.56463 5.74999 5.56352 5.75158 4.80817 5.85314C4.07439 5.95179 3.68582 6.13224 3.40906 6.409C3.1323 6.68576 2.95185 7.07434 2.8532 7.80811C2.75164 8.56346 2.75005 9.56458 2.75005 11V15C2.75005 15.9782 2.75649 16.3203 2.82672 16.5823C3.03477 17.3588 3.64125 17.9653 4.41771 18.1733C4.67979 18.2435 5.02179 18.25 6.00005 18.25V19.75C5.96088 19.75 5.92229 19.75 5.88427 19.75C5.0663 19.7503 4.50814 19.7505 4.02948 19.6222C2.73538 19.2755 1.72458 18.2647 1.37783 16.9706C1.24957 16.4919 1.24975 15.9338 1.25002 15.1158C1.25004 15.0778 1.25005 15.0392 1.25005 15L1.25005 10.9451C1.25003 9.57753 1.25001 8.47521 1.36657 7.60824C1.48759 6.70813 1.74648 5.95026 2.3484 5.34834C2.95032 4.74642 3.70819 4.48753 4.6083 4.36651C5.47527 4.24995 6.57758 4.24997 7.94517 4.24999L12.1894 4.24999L9.93939 1.99999L11 0.939331ZM19.5824 5.85232C19.3203 5.7821 18.9783 5.77566 18 5.77566V4.27566C18.0392 4.27566 18.0778 4.27564 18.1158 4.27563C18.9338 4.27536 19.492 4.27518 19.9706 4.40343C21.2647 4.75019 22.2755 5.76099 22.6223 7.05509C22.7505 7.53375 22.7503 8.0919 22.7501 8.90987C22.7501 8.9479 22.75 8.98649 22.75 9.02566V13.0549C22.7501 14.4225 22.7501 15.5248 22.6335 16.3917C22.5125 17.2919 22.2536 18.0497 21.6517 18.6516C21.0498 19.2536 20.2919 19.5125 19.3918 19.6335C18.5248 19.75 17.4225 19.75 16.0549 19.75H11.8107L14.0607 22L13 23.0606L9.46972 19.5303C9.17683 19.2374 9.17683 18.7626 9.46972 18.4697L13 14.9393L14.0607 16L11.8107 18.25H16C17.4355 18.25 18.4366 18.2484 19.1919 18.1468C19.9257 18.0482 20.3143 17.8677 20.591 17.591C20.8678 17.3142 21.0482 16.9256 21.1469 16.1919C21.2485 15.4365 21.25 14.4354 21.25 13V9.02566C21.25 8.0474 21.2436 7.7054 21.1734 7.44331C20.9653 6.66686 20.3589 6.06037 19.5824 5.85232Z" fill="#1E1915"/>
</svg>
