<svg width="24" height="24" viewBox="0 0 24 24" fill="none" xmlns="http://www.w3.org/2000/svg">
<mask id="path-1-inside-1_76_450" fill="white">
<path fill-rule="evenodd" clip-rule="evenodd" d="M4.58703 3.87292C4.83905 3.64292 4.96505 3.52791 5.19322 3.40812C5.45475 3.27081 5.87187 3.17285 6.16719 3.17938C6.42482 3.18509 6.64326 3.24753 7.08014 3.3724C7.97432 3.628 8.92669 3.23351 9.37824 2.4205C9.59911 2.02282 9.70954 1.82398 9.88806 1.63754C10.0922 1.42432 10.4565 1.19877 10.7383 1.11106C10.9848 1.03435 11.1555 1.02667 11.4968 1.0113C11.6636 1.00379 11.8314 1 12 1C12.1686 1 12.3364 1.00379 12.5032 1.0113C12.8445 1.02667 13.0152 1.03435 13.2617 1.11106C13.5435 1.19877 13.9078 1.42432 14.1119 1.63754C14.2905 1.82398 14.4009 2.02282 14.6218 2.4205C15.0733 3.23351 16.0257 3.628 16.9199 3.3724C17.3567 3.24753 17.5752 3.18509 17.8328 3.17938C18.1281 3.17285 18.5453 3.27081 18.8068 3.40812C19.0349 3.52791 19.161 3.64292 19.413 3.87292C19.6617 4.09996 19.9 4.33826 20.1271 4.58703C20.3571 4.83905 20.4721 4.96505 20.5919 5.19322C20.7292 5.45475 20.8272 5.87188 20.8206 6.16719C20.8149 6.42483 20.7525 6.64326 20.6276 7.08014C20.372 7.97432 20.7665 8.92669 21.5795 9.37824C21.9772 9.59911 22.176 9.70954 22.3625 9.88806C22.5757 10.0922 22.8012 10.4565 22.8889 10.7383C22.9656 10.9848 22.9733 11.1555 22.9887 11.4968C22.9962 11.6636 23 11.8314 23 12C23 12.1686 22.9962 12.3364 22.9887 12.5032C22.9733 12.8445 22.9656 13.0152 22.8889 13.2617C22.8012 13.5435 22.5757 13.9078 22.3625 14.1119C22.176 14.2905 21.9772 14.4009 21.5795 14.6218C20.7665 15.0733 20.372 16.0257 20.6276 16.9199C20.7525 17.3567 20.8149 17.5752 20.8206 17.8328C20.8272 18.1281 20.7292 18.5453 20.5919 18.8068C20.4721 19.0349 20.3571 19.161 20.1271 19.413C19.9 19.6617 19.6617 19.9 19.413 20.1271C19.161 20.3571 19.0349 20.4721 18.8068 20.5919C18.5453 20.7292 18.1281 20.8272 17.8328 20.8206C17.5752 20.8149 17.3567 20.7525 16.9199 20.6276C16.0257 20.372 15.0733 20.7665 14.6218 21.5795C14.4009 21.9772 14.2905 22.176 14.1119 22.3625C13.9078 22.5757 13.5435 22.8012 13.2617 22.8889C13.0152 22.9656 12.8445 22.9733 12.5032 22.9887C12.3364 22.9962 12.1686 23 12 23C11.8314 23 11.6636 22.9962 11.4968 22.9887C11.1555 22.9733 10.9848 22.9656 10.7383 22.8889C10.4565 22.8012 10.0922 22.5757 9.88806 22.3625C9.70954 22.176 9.59911 21.9772 9.37824 21.5795C8.92669 20.7665 7.97432 20.372 7.08014 20.6276C6.64326 20.7525 6.42483 20.8149 6.16719 20.8206C5.87188 20.8272 5.45475 20.7292 5.19322 20.5919C4.96505 20.4721 4.83905 20.3571 4.58703 20.1271C4.33826 19.9 4.09996 19.6617 3.87292 19.413C3.64292 19.161 3.52791 19.0349 3.40812 18.8068C3.27081 18.5453 3.17285 18.1281 3.17938 17.8328C3.18509 17.5752 3.24753 17.3567 3.3724 16.9199C3.628 16.0257 3.23351 15.0733 2.4205 14.6218C2.02282 14.4009 1.82398 14.2905 1.63754 14.1119C1.42432 13.9078 1.19877 13.5435 1.11106 13.2617C1.03435 13.0152 1.02667 12.8445 1.0113 12.5032C1.00379 12.3364 1 12.1686 1 12C1 11.8314 1.00379 11.6636 1.0113 11.4968C1.02667 11.1555 1.03435 10.9848 1.11106 10.7383C1.19877 10.4565 1.42432 10.0922 1.63753 9.88807C1.82398 9.70954 2.02282 9.59911 2.4205 9.37824C3.23351 8.92669 3.628 7.97432 3.3724 7.08014C3.24753 6.64326 3.18509 6.42482 3.17938 6.16719C3.17285 5.87188 3.27081 5.45475 3.40812 5.19322C3.52792 4.96505 3.64292 4.83905 3.87292 4.58703C4.09995 4.33826 4.33826 4.09996 4.58703 3.87292Z"/>
</mask>
<path d="M1.63754 14.1119L2.67493 13.0285L1.63754 14.1119ZM1.11106 13.2617L-0.321191 13.7074L1.11106 13.2617ZM3.87292 19.413L2.76497 20.4241L3.87292 19.413ZM3.40812 18.8068L2.08004 19.5041L3.40812 18.8068ZM3.17938 17.8328L1.67975 17.7996L3.17938 17.8328ZM14.1119 22.3625L15.1954 23.3999L14.1119 22.3625ZM12.5032 22.9887L12.4357 21.4902L12.5032 22.9887ZM13.2617 22.8889L12.8159 21.4567L13.2617 22.8889ZM19.413 20.1271L18.4018 19.0191L19.413 20.1271ZM18.8068 20.5919L19.5041 21.92L18.8068 20.5919ZM17.8328 20.8206L17.866 19.321L17.8328 20.8206ZM20.8206 17.8328L19.321 17.866L20.8206 17.8328ZM20.1271 19.413L19.0191 18.4018L20.1271 19.413ZM20.5919 18.8068L19.2638 18.1095L20.5919 18.8068ZM6.16719 3.17938L6.20038 1.67975L6.16719 3.17938ZM4.58703 3.87292L3.57587 2.76497L4.58703 3.87292ZM5.19322 3.40812L5.8905 4.7362L5.19322 3.40812ZM11.4968 22.9887L11.5643 21.4902L11.4968 22.9887ZM10.7383 22.8889L10.2926 24.3212L10.7383 22.8889ZM9.88806 22.3625L10.9715 21.3251L9.88806 22.3625ZM3.17938 6.16719L1.67975 6.20038L3.17938 6.16719ZM3.40812 5.19322L4.7362 5.8905L3.40812 5.19322ZM22.3625 9.88806L23.3999 8.80463L22.3625 9.88806ZM22.9887 11.4968L21.4902 11.5643L22.9887 11.4968ZM22.8889 10.7383L24.3212 10.2926L22.8889 10.7383ZM1.0113 11.4968L-0.487179 11.4294L1.0113 11.4968ZM1.11106 10.7383L2.54331 11.1841L1.11106 10.7383ZM1.63753 9.88807L0.600143 8.80464L1.63753 9.88807ZM20.1271 4.58703L21.235 3.57587L20.1271 4.58703ZM20.5919 5.19322L21.92 4.49594L20.5919 5.19322ZM20.8206 6.16719L19.321 6.134L20.8206 6.16719ZM17.8328 3.17938L17.7996 1.67975L17.8328 3.17938ZM19.413 3.87292L18.4018 4.98086L19.413 3.87292ZM18.8068 3.40812L18.1095 4.7362L18.8068 3.40812ZM22.9887 12.5032L24.4872 12.5706L22.9887 12.5032ZM22.8889 13.2617L24.3212 13.7074L22.8889 13.2617ZM22.3625 14.1119L23.3998 15.1954L22.3625 14.1119ZM6.16719 20.8206L6.20039 22.3202L6.16719 20.8206ZM4.58703 20.1271L5.5982 19.0191L4.58703 20.1271ZM5.19322 20.5919L4.49593 21.92L5.19322 20.5919ZM9.88806 1.63754L8.80463 0.60015L9.88806 1.63754ZM10.7383 1.11106L10.2926 -0.321191L10.7383 1.11106ZM12.5032 1.0113L12.4357 2.50979L12.5032 1.0113ZM13.2617 1.11106L13.7074 -0.321191L13.2617 1.11106ZM14.1119 1.63754L15.1954 0.60015L14.1119 1.63754ZM6.66788 4.81464C8.2327 5.26193 9.89935 4.57158 10.6896 3.14881L8.06692 1.69219C7.95403 1.89544 7.71593 1.99407 7.49239 1.93017L6.66788 4.81464ZM11.5643 2.50979C11.7086 2.50329 11.8539 2.5 12 2.5V-0.5C11.8089 -0.5 11.6186 -0.495699 11.4294 -0.487179L11.5643 2.50979ZM12 2.5C12.1461 2.5 12.2914 2.50329 12.4357 2.50979L12.5706 -0.487179C12.3814 -0.495699 12.1911 -0.5 12 -0.5V2.5ZM13.3104 3.14881C14.1007 4.57158 15.7673 5.26193 17.3321 4.81464L16.5076 1.93017C16.2841 1.99407 16.046 1.89545 15.9331 1.69219L13.3104 3.14881ZM18.4018 4.98086C18.6169 5.17713 18.8229 5.38315 19.0191 5.5982L21.235 3.57587C20.9772 3.29338 20.7066 3.02278 20.4241 2.76497L18.4018 4.98086ZM19.1854 6.66788C18.7381 8.2327 19.4284 9.89935 20.8512 10.6896L22.3078 8.06692C22.1046 7.95403 22.0059 7.71594 22.0698 7.49239L19.1854 6.66788ZM21.4902 11.5643C21.4967 11.7086 21.5 11.8539 21.5 12H24.5C24.5 11.8089 24.4957 11.6186 24.4872 11.4294L21.4902 11.5643ZM21.5 12C21.5 12.1461 21.4967 12.2914 21.4902 12.4357L24.4872 12.5706C24.4957 12.3814 24.5 12.1911 24.5 12H21.5ZM20.8512 13.3104C19.4284 14.1007 18.7381 15.7673 19.1854 17.3321L22.0698 16.5076C22.0059 16.2841 22.1046 16.046 22.3078 15.9331L20.8512 13.3104ZM19.0191 18.4018C18.8229 18.6169 18.6169 18.8229 18.4018 19.0191L20.4241 21.235C20.7066 20.9772 20.9772 20.7066 21.235 20.4241L19.0191 18.4018ZM17.3321 19.1854C15.7673 18.7381 14.1006 19.4284 13.3104 20.8512L15.9331 22.3078C16.046 22.1046 16.2841 22.0059 16.5076 22.0698L17.3321 19.1854ZM12.4357 21.4902C12.2914 21.4967 12.1461 21.5 12 21.5V24.5C12.1911 24.5 12.3814 24.4957 12.5706 24.4872L12.4357 21.4902ZM12 21.5C11.8539 21.5 11.7086 21.4967 11.5643 21.4902L11.4294 24.4872C11.6186 24.4957 11.8089 24.5 12 24.5V21.5ZM10.6896 20.8512C9.89935 19.4284 8.2327 18.7381 6.66788 19.1854L7.49239 22.0698C7.71594 22.0059 7.95403 22.1046 8.06691 22.3078L10.6896 20.8512ZM5.5982 19.0191C5.38315 18.8229 5.17713 18.6169 4.98086 18.4018L2.76497 20.4241C3.02278 20.7066 3.29338 20.9772 3.57587 21.235L5.5982 19.0191ZM4.81464 17.3321C5.26193 15.7673 4.57158 14.1006 3.14881 13.3104L1.69219 15.9331C1.89544 16.046 1.99407 16.2841 1.93017 16.5076L4.81464 17.3321ZM2.50979 12.4357C2.50329 12.2914 2.5 12.1461 2.5 12H-0.5C-0.5 12.1911 -0.495699 12.3814 -0.487179 12.5706L2.50979 12.4357ZM2.5 12C2.5 11.8539 2.50329 11.7086 2.50979 11.5643L-0.487179 11.4294C-0.495699 11.6186 -0.5 11.8089 -0.5 12H2.5ZM3.14881 10.6896C4.57158 9.89935 5.26193 8.2327 4.81464 6.66788L1.93017 7.49239C1.99407 7.71594 1.89544 7.95403 1.69219 8.06691L3.14881 10.6896ZM4.98086 5.5982C5.17713 5.38314 5.38314 5.17713 5.5982 4.98086L3.57587 2.76497C3.29338 3.02278 3.02278 3.29338 2.76497 3.57587L4.98086 5.5982ZM3.14881 13.3104C2.93666 13.1926 2.82988 13.1327 2.75096 13.0828C2.6903 13.0445 2.67869 13.0321 2.67493 13.0285L0.60015 15.1954C0.954904 15.535 1.34406 15.7397 1.69219 15.9331L3.14881 13.3104ZM-0.487179 12.5706C-0.4725 12.8967 -0.46309 13.2514 -0.321191 13.7074L2.54331 12.8159C2.53366 12.7849 2.53134 12.7724 2.52825 12.7457C2.52585 12.7249 2.52304 12.6936 2.51988 12.641C2.51662 12.5867 2.51376 12.5241 2.50979 12.4357L-0.487179 12.5706ZM2.67493 13.0285C2.68428 13.0375 2.67813 13.0327 2.66012 13.0097C2.64326 12.9881 2.62307 12.9594 2.60256 12.9263C2.58204 12.8932 2.56539 12.8623 2.55357 12.8376C2.54094 12.8112 2.53946 12.8036 2.54331 12.8159L-0.321191 13.7074C-0.157983 14.2318 0.20343 14.8155 0.60015 15.1954L2.67493 13.0285ZM4.98086 18.4018C4.9213 18.3365 4.87916 18.2903 4.84313 18.2496C4.80827 18.2103 4.78814 18.1861 4.77515 18.1697C4.75849 18.1487 4.75126 18.1382 4.7362 18.1095L2.08004 19.5041C2.30166 19.9262 2.54529 20.1834 2.76497 20.4241L4.98086 18.4018ZM1.93017 16.5076C1.82086 16.89 1.6906 17.3094 1.67975 17.7996L4.67902 17.866C4.67913 17.8608 4.67857 17.8439 4.69437 17.7739C4.71491 17.6829 4.74803 17.5652 4.81464 17.3321L1.93017 16.5076ZM4.7362 18.1095C4.7422 18.1209 4.73786 18.1145 4.72813 18.0869C4.71901 18.061 4.70899 18.0274 4.70008 17.9895C4.69117 17.9516 4.6852 17.9171 4.68186 17.8899C4.67829 17.8608 4.6793 17.8531 4.67902 17.866L1.67975 17.7996C1.66759 18.349 1.82458 19.0175 2.08004 19.5041L4.7362 18.1095ZM13.3104 20.8512C13.1926 21.0633 13.1327 21.1701 13.0828 21.249C13.0445 21.3097 13.0321 21.3213 13.0285 21.3251L15.1954 23.3999C15.535 23.0451 15.7397 22.6559 15.9331 22.3078L13.3104 20.8512ZM12.5706 24.4872C12.8967 24.4725 13.2514 24.4631 13.7074 24.3212L12.8159 21.4567C12.7849 21.4663 12.7724 21.4687 12.7457 21.4717C12.7249 21.4742 12.6936 21.477 12.641 21.4801C12.5867 21.4834 12.5241 21.4862 12.4357 21.4902L12.5706 24.4872ZM13.0285 21.3251C13.0375 21.3157 13.0327 21.3219 13.0097 21.3399C12.9881 21.3567 12.9594 21.3769 12.9263 21.3974C12.8932 21.418 12.8623 21.4346 12.8376 21.4464C12.8112 21.4591 12.8036 21.4605 12.8159 21.4567L13.7074 24.3212C14.2318 24.158 14.8155 23.7966 15.1954 23.3999L13.0285 21.3251ZM18.4018 19.0191C18.3365 19.0787 18.2903 19.1208 18.2496 19.1569C18.2103 19.1917 18.1861 19.2119 18.1697 19.2249C18.1487 19.2415 18.1382 19.2487 18.1095 19.2638L19.5041 21.92C19.9262 21.6983 20.1834 21.4547 20.4241 21.235L18.4018 19.0191ZM16.5076 22.0698C16.89 22.1791 17.3094 22.3094 17.7996 22.3202L17.866 19.321C17.8608 19.3209 17.8439 19.3214 17.7739 19.3056C17.6829 19.2851 17.5652 19.252 17.3321 19.1854L16.5076 22.0698ZM18.1095 19.2638C18.1209 19.2578 18.1145 19.2621 18.0869 19.2719C18.061 19.281 18.0274 19.291 17.9895 19.2999C17.9516 19.3088 17.9171 19.3148 17.8899 19.3181C17.8608 19.3217 17.8531 19.3207 17.866 19.321L17.7996 22.3202C18.349 22.3324 19.0175 22.1754 19.5041 21.92L18.1095 19.2638ZM19.1854 17.3321C19.252 17.5652 19.2851 17.6829 19.3056 17.7739C19.3214 17.8439 19.3209 17.8608 19.321 17.866L22.3202 17.7996C22.3094 17.3094 22.1791 16.89 22.0698 16.5076L19.1854 17.3321ZM21.235 20.4241C21.4547 20.1834 21.6983 19.9262 21.92 19.5041L19.2638 18.1095C19.2487 18.1382 19.2415 18.1487 19.2249 18.1697C19.2119 18.1861 19.1917 18.2103 19.1569 18.2496C19.1208 18.2903 19.0787 18.3365 19.0191 18.4018L21.235 20.4241ZM19.321 17.866C19.3207 17.8531 19.3217 17.8608 19.3181 17.8899C19.3148 17.9171 19.3088 17.9516 19.2999 17.9895C19.291 18.0274 19.281 18.061 19.2719 18.0869C19.2621 18.1145 19.2578 18.1209 19.2638 18.1095L21.92 19.5041C22.1754 19.0175 22.3324 18.349 22.3202 17.7996L19.321 17.866ZM7.49239 1.93017C7.10998 1.82086 6.69061 1.6906 6.20038 1.67975L6.13399 4.67902C6.13915 4.67913 6.15611 4.67857 6.22608 4.69437C6.31706 4.71491 6.43484 4.74803 6.66788 4.81464L7.49239 1.93017ZM5.5982 4.98086C5.66346 4.9213 5.70968 4.87916 5.75037 4.84313C5.78975 4.80827 5.81386 4.78814 5.83026 4.77515C5.8513 4.75849 5.86182 4.75126 5.8905 4.7362L4.49594 2.08004C4.07382 2.30166 3.81658 2.54529 3.57587 2.76497L5.5982 4.98086ZM6.20038 1.67975C5.65097 1.66759 4.98249 1.82458 4.49594 2.08004L5.8905 4.7362C5.87908 4.7422 5.88553 4.73786 5.91313 4.72813C5.93898 4.71901 5.97256 4.70899 6.01048 4.70008C6.0484 4.69117 6.08293 4.6852 6.11014 4.68186C6.13918 4.67829 6.14689 4.6793 6.13399 4.67902L6.20038 1.67975ZM11.5643 21.4902C11.4759 21.4862 11.4133 21.4834 11.359 21.4801C11.3064 21.477 11.2751 21.4742 11.2543 21.4717C11.2276 21.4687 11.2151 21.4663 11.1841 21.4567L10.2926 24.3212C10.7486 24.4631 11.1033 24.4725 11.4294 24.4872L11.5643 21.4902ZM8.06691 22.3078C8.26027 22.6559 8.46495 23.0451 8.80463 23.3998L10.9715 21.3251C10.9679 21.3213 10.9555 21.3097 10.9172 21.249C10.8673 21.1701 10.8074 21.0633 10.6896 20.8512L8.06691 22.3078ZM11.1841 21.4567C11.1964 21.4605 11.1888 21.4591 11.1624 21.4464C11.1377 21.4346 11.1068 21.418 11.0737 21.3974C11.0406 21.3769 11.0119 21.3567 10.9903 21.3399C10.9673 21.3219 10.9625 21.3157 10.9715 21.3251L8.80463 23.3998C9.18449 23.7966 9.76818 24.158 10.2926 24.3212L11.1841 21.4567ZM4.81464 6.66788C4.74803 6.43484 4.71491 6.31706 4.69437 6.22608C4.67857 6.15611 4.67913 6.13915 4.67902 6.13399L1.67975 6.20038C1.6906 6.69062 1.82086 7.10998 1.93017 7.49239L4.81464 6.66788ZM2.76497 3.57587C2.54529 3.81658 2.30166 4.07382 2.08004 4.49593L4.7362 5.8905C4.75126 5.86182 4.75849 5.8513 4.77515 5.83026C4.78814 5.81386 4.80827 5.78975 4.84313 5.75037C4.87916 5.70968 4.9213 5.66346 4.98086 5.5982L2.76497 3.57587ZM4.67902 6.13399C4.6793 6.14689 4.67829 6.13918 4.68186 6.11014C4.6852 6.08293 4.69117 6.0484 4.70008 6.01048C4.70899 5.97256 4.71901 5.93898 4.72813 5.91313C4.73786 5.88553 4.7422 5.87908 4.7362 5.8905L2.08004 4.49593C1.82458 4.98249 1.66759 5.65098 1.67975 6.20038L4.67902 6.13399ZM20.8512 10.6896C21.0633 10.8074 21.1701 10.8673 21.249 10.9172C21.3097 10.9555 21.3213 10.9679 21.3251 10.9715L23.3999 8.80463C23.0451 8.46495 22.6559 8.26027 22.3078 8.06692L20.8512 10.6896ZM24.4872 11.4294C24.4725 11.1033 24.4631 10.7486 24.3212 10.2926L21.4567 11.1841C21.4663 11.2151 21.4687 11.2276 21.4717 11.2543C21.4742 11.2751 21.477 11.3064 21.4801 11.359C21.4834 11.4133 21.4862 11.4759 21.4902 11.5643L24.4872 11.4294ZM21.3251 10.9715C21.3157 10.9625 21.3219 10.9673 21.3399 10.9903C21.3567 11.0119 21.3769 11.0406 21.3974 11.0737C21.418 11.1068 21.4346 11.1377 21.4464 11.1624C21.4591 11.1888 21.4605 11.1964 21.4567 11.1841L24.3212 10.2926C24.158 9.76818 23.7966 9.18449 23.3999 8.80463L21.3251 10.9715ZM2.50979 11.5643C2.51376 11.4759 2.51662 11.4133 2.51988 11.359C2.52304 11.3064 2.52585 11.2751 2.52825 11.2543C2.53134 11.2276 2.53366 11.2151 2.54331 11.1841L-0.32119 10.2926C-0.46309 10.7486 -0.4725 11.1033 -0.487179 11.4294L2.50979 11.5643ZM1.69219 8.06691C1.34406 8.26027 0.954899 8.46496 0.600143 8.80464L2.67492 10.9715C2.67869 10.9679 2.6903 10.9555 2.75096 10.9172C2.82988 10.8673 2.93666 10.8074 3.14881 10.6896L1.69219 8.06691ZM2.54331 11.1841C2.53946 11.1964 2.54094 11.1888 2.55357 11.1624C2.56539 11.1377 2.58204 11.1068 2.60256 11.0737C2.62307 11.0406 2.64326 11.0119 2.66012 10.9903C2.67813 10.9673 2.68428 10.9625 2.67492 10.9715L0.600143 8.80464C0.203427 9.18449 -0.157982 9.76818 -0.32119 10.2926L2.54331 11.1841ZM19.0191 5.5982C19.0787 5.66346 19.1208 5.70968 19.1569 5.75037C19.1917 5.78975 19.2119 5.81386 19.2249 5.83026C19.2415 5.8513 19.2487 5.86182 19.2638 5.8905L21.92 4.49594C21.6983 4.07382 21.4547 3.81658 21.235 3.57587L19.0191 5.5982ZM22.0698 7.49239C22.1791 7.10998 22.3094 6.69062 22.3202 6.20038L19.321 6.134C19.3209 6.13915 19.3214 6.15611 19.3056 6.22608C19.2851 6.31707 19.252 6.43484 19.1854 6.66788L22.0698 7.49239ZM19.2638 5.8905C19.2578 5.87908 19.2621 5.88553 19.2719 5.91313C19.281 5.93898 19.291 5.97256 19.2999 6.01048C19.3088 6.0484 19.3148 6.08293 19.3181 6.11014C19.3217 6.13918 19.3207 6.14689 19.321 6.134L22.3202 6.20038C22.3324 5.65098 22.1754 4.98249 21.92 4.49594L19.2638 5.8905ZM17.3321 4.81464C17.5652 4.74803 17.6829 4.71491 17.7739 4.69437C17.8439 4.67857 17.8608 4.67913 17.866 4.67902L17.7996 1.67975C17.3094 1.6906 16.89 1.82086 16.5076 1.93017L17.3321 4.81464ZM20.4241 2.76497C20.1834 2.54529 19.9262 2.30166 19.5041 2.08004L18.1095 4.7362C18.1382 4.75126 18.1487 4.75849 18.1697 4.77515C18.1861 4.78814 18.2103 4.80827 18.2496 4.84313C18.2903 4.87916 18.3365 4.9213 18.4018 4.98086L20.4241 2.76497ZM17.866 4.67902C17.8531 4.6793 17.8608 4.67829 17.8899 4.68186C17.9171 4.6852 17.9516 4.69117 17.9895 4.70008C18.0274 4.70899 18.061 4.71901 18.0869 4.72813C18.1145 4.73786 18.1209 4.7422 18.1095 4.7362L19.5041 2.08004C19.0175 1.82459 18.349 1.66759 17.7996 1.67975L17.866 4.67902ZM21.4902 12.4357C21.4862 12.5241 21.4834 12.5867 21.4801 12.641C21.477 12.6936 21.4742 12.7249 21.4717 12.7457C21.4687 12.7724 21.4663 12.7849 21.4567 12.8159L24.3212 13.7074C24.4631 13.2514 24.4725 12.8967 24.4872 12.5706L21.4902 12.4357ZM22.3078 15.9331C22.6559 15.7397 23.0451 15.535 23.3998 15.1954L21.3251 13.0285C21.3213 13.0321 21.3097 13.0445 21.249 13.0828C21.1701 13.1327 21.0633 13.1926 20.8512 13.3104L22.3078 15.9331ZM21.4567 12.8159C21.4605 12.8036 21.4591 12.8112 21.4464 12.8376C21.4346 12.8623 21.418 12.8932 21.3974 12.9263C21.3769 12.9594 21.3567 12.9881 21.3399 13.0097C21.3219 13.0327 21.3157 13.0375 21.3251 13.0285L23.3998 15.1954C23.7966 14.8155 24.158 14.2318 24.3212 13.7074L21.4567 12.8159ZM6.66788 19.1854C6.43484 19.252 6.31707 19.2851 6.22608 19.3056C6.15611 19.3214 6.13915 19.3209 6.134 19.321L6.20039 22.3202C6.69062 22.3094 7.10998 22.1791 7.49239 22.0698L6.66788 19.1854ZM3.57587 21.235C3.81658 21.4547 4.07382 21.6983 4.49593 21.92L5.8905 19.2638C5.86182 19.2487 5.8513 19.2415 5.83026 19.2249C5.81386 19.2119 5.78975 19.1917 5.75037 19.1569C5.70968 19.1208 5.66346 19.0787 5.5982 19.0191L3.57587 21.235ZM6.134 19.321C6.14689 19.3207 6.13918 19.3217 6.11014 19.3181C6.08293 19.3148 6.0484 19.3088 6.01048 19.2999C5.97256 19.291 5.93898 19.281 5.91313 19.2719C5.88553 19.2621 5.87908 19.2578 5.8905 19.2638L4.49593 21.92C4.98249 22.1754 5.65098 22.3324 6.20039 22.3202L6.134 19.321ZM10.6896 3.14881C10.8074 2.93666 10.8673 2.82988 10.9172 2.75096C10.9555 2.6903 10.9679 2.67869 10.9715 2.67493L8.80463 0.60015C8.46495 0.954904 8.26027 1.34406 8.06692 1.69219L10.6896 3.14881ZM11.4294 -0.487179C11.1033 -0.4725 10.7486 -0.46309 10.2926 -0.321191L11.1841 2.54331C11.2151 2.53366 11.2276 2.53134 11.2543 2.52825C11.2751 2.52585 11.3064 2.52304 11.359 2.51988C11.4133 2.51662 11.4759 2.51376 11.5643 2.50979L11.4294 -0.487179ZM10.9715 2.67493C10.9625 2.68428 10.9673 2.67813 10.9903 2.66012C11.0119 2.64326 11.0406 2.62307 11.0737 2.60256C11.1068 2.58204 11.1377 2.56539 11.1624 2.55357C11.1888 2.54094 11.1964 2.53946 11.1841 2.54331L10.2926 -0.321191C9.76818 -0.157983 9.18449 0.20343 8.80463 0.60015L10.9715 2.67493ZM12.4357 2.50979C12.5241 2.51376 12.5867 2.51662 12.641 2.51988C12.6936 2.52304 12.7249 2.52585 12.7457 2.52825C12.7724 2.53134 12.7849 2.53366 12.8159 2.54331L13.7074 -0.321191C13.2514 -0.46309 12.8967 -0.4725 12.5706 -0.487179L12.4357 2.50979ZM15.9331 1.69219C15.7397 1.34406 15.535 0.954904 15.1954 0.60015L13.0285 2.67493C13.0321 2.67869 13.0445 2.6903 13.0828 2.75096C13.1327 2.82988 13.1926 2.93666 13.3104 3.14881L15.9331 1.69219ZM12.8159 2.54331C12.8036 2.53946 12.8112 2.54094 12.8376 2.55357C12.8623 2.56539 12.8931 2.58204 12.9263 2.60256C12.9594 2.62307 12.9881 2.64326 13.0097 2.66012C13.0327 2.67813 13.0375 2.68428 13.0285 2.67493L15.1954 0.60015C14.8155 0.20343 14.2318 -0.157982 13.7074 -0.321191L12.8159 2.54331Z" fill="#1E1915" mask="url(#path-1-inside-1_76_450)"/>
<circle cx="12" cy="12" r="3.65" stroke="#1E1915" stroke-width="1.5"/>
</svg>
