<svg width="24" height="24" viewBox="0 0 24 24" fill="none" xmlns="http://www.w3.org/2000/svg">
<path fill-rule="evenodd" clip-rule="evenodd" d="M8.94513 2.25H15.0549C16.4225 2.24998 17.5248 2.24996 18.3918 2.36652C19.2919 2.48754 20.0497 2.74643 20.6517 3.34835C21.2536 3.95027 21.5125 4.70814 21.6335 5.60825C21.7202 6.25306 21.7424 7.02806 21.7481 7.94555C21.7493 7.96353 21.75 7.98169 21.75 8C21.75 8.01546 21.7495 8.03082 21.7486 8.04605C21.75 8.33204 21.75 8.63162 21.75 8.94513V15.0549C21.75 16.4225 21.75 17.5248 21.6335 18.3918C21.5125 19.2919 21.2536 20.0497 20.6517 20.6517C20.0497 21.2536 19.2919 21.5125 18.3918 21.6335C17.5248 21.75 16.4225 21.75 15.0549 21.75H8.94513C7.57754 21.75 6.47522 21.75 5.60825 21.6335C4.70814 21.5125 3.95027 21.2536 3.34835 20.6517C2.74643 20.0497 2.48754 19.2919 2.36652 18.3918C2.24996 17.5248 2.24998 16.4225 2.25 15.0549V8.94513C2.25 8.63161 2.24999 8.33204 2.25139 8.04605C2.25047 8.03082 2.25 8.01546 2.25 8C2.25 7.98169 2.25066 7.96354 2.25195 7.94556C2.25763 7.02806 2.27983 6.25306 2.36652 5.60825C2.48754 4.70814 2.74643 3.95027 3.34835 3.34835C3.95027 2.74643 4.70814 2.48754 5.60825 2.36652C6.47522 2.24996 7.57754 2.24998 8.94513 2.25ZM3.75004 8.75C3.75001 8.83184 3.75 8.91516 3.75 9V15C3.75 16.4354 3.75159 17.4365 3.85315 18.1919C3.9518 18.9257 4.13225 19.3142 4.40901 19.591C4.68577 19.8678 5.07435 20.0482 5.80812 20.1469C6.42437 20.2297 7.2042 20.246 8.25 20.2492V8.75H3.75004ZM3.76115 7.25C3.77341 6.68097 3.79914 6.2098 3.85315 5.80812C3.9518 5.07435 4.13225 4.68577 4.40901 4.40901C4.68577 4.13225 5.07435 3.9518 5.80812 3.85315C6.56347 3.75159 7.56459 3.75 9 3.75H15C16.4354 3.75 17.4365 3.75159 18.1919 3.85315C18.9257 3.9518 19.3142 4.13225 19.591 4.40901C19.8678 4.68577 20.0482 5.07435 20.1469 5.80812C20.2009 6.2098 20.2266 6.68097 20.2389 7.25H3.76115ZM9.75 8.75V20.25H15C16.4354 20.25 17.4365 20.2484 18.1919 20.1469C18.9257 20.0482 19.3142 19.8678 19.591 19.591C19.8678 19.3142 20.0482 18.9257 20.1469 18.1919C20.2484 17.4365 20.25 16.4354 20.25 15V9C20.25 8.91516 20.25 8.83184 20.25 8.75H9.75Z" fill="#1E1915"/>
</svg>
