<svg width="24" height="24" viewBox="0 0 24 24" fill="none" xmlns="http://www.w3.org/2000/svg">
<path fill-rule="evenodd" clip-rule="evenodd" d="M16 2.75C13.1005 2.75 10.75 5.10051 10.75 8C10.75 8.43077 10.8017 8.84845 10.8989 9.24758L10.9027 9.26292C10.9591 9.49443 11.0068 9.69023 11.0383 9.84688C11.0685 9.9974 11.0992 10.1807 11.0867 10.3646C11.0686 10.6289 11.0164 10.815 10.8945 11.0502C10.7675 11.2953 10.5483 11.5135 10.3358 11.7251C10.3165 11.7443 10.2972 11.7634 10.2781 11.7825L4.03031 18.0303C3.49478 18.5659 3.49478 19.4341 4.03031 19.9697C4.56585 20.5052 5.43412 20.5052 5.96965 19.9697L12.2175 13.7219C12.2366 13.7027 12.2557 13.6835 12.2749 13.6642C12.4865 13.4516 12.7046 13.2325 12.9498 13.1055C13.185 12.9836 13.3711 12.9314 13.6354 12.9133C13.8193 12.9007 14.0026 12.9315 14.1531 12.9617C14.3098 12.9932 14.5056 13.0409 14.7371 13.0973L14.7524 13.101C15.1515 13.1983 15.5692 13.25 16 13.25C18.8995 13.25 21.25 10.8995 21.25 8C21.25 7.62991 21.2118 7.2692 21.1392 6.92141L19.1431 8.91752C18.9611 9.09959 18.7939 9.26682 18.6427 9.39518C18.4797 9.53357 18.2866 9.67026 18.0408 9.75014C17.6893 9.86434 17.3107 9.86434 16.9592 9.75014C16.7134 9.67026 16.5203 9.53357 16.3573 9.39518C16.2061 9.26681 16.0389 9.09958 15.8568 8.91749L15.0825 8.14316C14.9004 7.9611 14.7332 7.7939 14.6048 7.64269C14.4664 7.47967 14.3297 7.28661 14.2498 7.04078C14.1356 6.6893 14.1356 6.3107 14.2498 5.95922C14.3297 5.71339 14.4664 5.52033 14.6048 5.35731C14.7332 5.20609 14.9004 5.03888 15.0825 4.85682L17.0786 2.86075C16.7308 2.78819 16.3701 2.75 16 2.75ZM9.24998 8C9.24998 4.27208 12.2721 1.25 16 1.25C16.9891 1.25 17.9304 1.46321 18.7788 1.84689C19.0031 1.94835 19.1634 2.15349 19.2076 2.39573C19.2517 2.63798 19.1742 2.88647 19.0001 3.06059L16.1617 5.89896C15.9549 6.10572 15.8322 6.22931 15.7483 6.32807C15.6971 6.38835 15.6797 6.41778 15.6754 6.42601C15.6605 6.4742 15.6605 6.52579 15.6754 6.57399C15.6797 6.58222 15.6971 6.61165 15.7483 6.67193C15.8322 6.77069 15.9549 6.89428 16.1617 7.10104L16.8989 7.8383C17.1057 8.04506 17.2293 8.16782 17.3281 8.25167C17.3883 8.30284 17.4178 8.32025 17.426 8.32458C17.4742 8.33952 17.5258 8.33952 17.574 8.32459C17.5822 8.32026 17.6116 8.30284 17.6719 8.25167C17.7707 8.16782 17.8943 8.04506 18.101 7.8383L20.9394 4.99993C21.1135 4.82581 21.362 4.74825 21.6042 4.79242C21.8465 4.83659 22.0516 4.99685 22.1531 5.22121C22.5368 6.06961 22.75 7.01092 22.75 8C22.75 11.7279 19.7279 14.75 16 14.75C15.4487 14.75 14.9118 14.6838 14.3974 14.5584C14.1464 14.4973 13.9806 14.457 13.8575 14.4323C13.7702 14.4148 13.7333 14.4114 13.7266 14.4106C13.7035 14.4124 13.6915 14.4141 13.6865 14.415C13.6813 14.417 13.6685 14.4226 13.6439 14.4352C13.639 14.4386 13.6184 14.4534 13.5748 14.4927C13.5069 14.5541 13.4201 14.6405 13.2781 14.7825L7.03031 21.0303C5.90899 22.1516 4.09097 22.1516 2.96965 21.0303C1.84833 19.909 1.84833 18.091 2.96965 16.9697L9.21747 10.7219C9.35946 10.5799 9.44588 10.4931 9.50726 10.4252C9.5466 10.3816 9.56138 10.361 9.56476 10.3561C9.57739 10.3315 9.58295 10.3186 9.58502 10.3135C9.58586 10.3085 9.58754 10.2964 9.58934 10.2734C9.58855 10.2666 9.58523 10.2298 9.56769 10.1425C9.54294 10.0194 9.50269 9.85354 9.44155 9.6026C9.31623 9.08815 9.24998 8.55131 9.24998 8Z" fill="#1E1915"/>
</svg>
