<svg width="24" height="24" viewBox="0 0 24 24" fill="none" xmlns="http://www.w3.org/2000/svg">
<path fill-rule="evenodd" clip-rule="evenodd" d="M11.948 1.25H12.052C12.9505 1.24997 13.6997 1.24995 14.2945 1.32991C14.9223 1.41432 15.4891 1.59999 15.9445 2.05546C16.4 2.51093 16.5857 3.07773 16.6701 3.70552C16.7284 4.13899 16.7442 4.65449 16.7484 5.25H21.75V6.75H19.7046L19.0968 16.4738C19.0164 17.7619 18.9514 18.8022 18.792 19.6186C18.6264 20.4674 18.3416 21.1767 17.7493 21.7331C17.157 22.2895 16.4313 22.5296 15.5739 22.642C14.7491 22.75 13.7067 22.75 12.4162 22.75H11.5838C10.2933 22.75 9.25093 22.75 8.42614 22.642C7.5687 22.5296 6.84303 22.2895 6.25074 21.7331C5.65844 21.1767 5.37359 20.4674 5.20796 19.6186C5.04864 18.8022 4.98363 17.7619 4.90315 16.4738L4.29541 6.75H2.25V5.25H7.25157C7.25584 4.65449 7.27163 4.13899 7.32991 3.70552C7.41432 3.07773 7.59999 2.51093 8.05546 2.05546C8.51093 1.59999 9.07773 1.41432 9.70552 1.32991C10.3003 1.24995 11.0495 1.24997 11.948 1.25ZM8.75181 5.25H15.2482C15.244 4.68056 15.2299 4.25089 15.1835 3.90539C15.1214 3.44393 15.0142 3.24644 14.8839 3.11612C14.7536 2.9858 14.5561 2.87858 14.0946 2.81654C13.6116 2.7516 12.964 2.75 12 2.75C11.036 2.75 10.3884 2.7516 9.90539 2.81654C9.44393 2.87858 9.24643 2.9858 9.11612 3.11612C8.9858 3.24644 8.87858 3.44393 8.81654 3.90539C8.77008 4.25089 8.75604 4.68056 8.75181 5.25ZM5.79834 6.75L6.39693 16.3275C6.48152 17.6808 6.54189 18.6226 6.68019 19.3313C6.81435 20.0188 7.00413 20.3828 7.27778 20.6399C7.55144 20.8969 7.9265 21.0637 8.62104 21.1547C9.337 21.2485 10.2807 21.25 11.6367 21.25H12.3633C13.7193 21.25 14.663 21.2485 15.379 21.1547C16.0735 21.0637 16.4486 20.8969 16.7222 20.6399C16.9959 20.3828 17.1856 20.0188 17.3198 19.3313C17.4581 18.6226 17.5185 17.6808 17.6031 16.3275L18.2017 6.75H5.79834Z" fill="#1E1915"/>
</svg>
