<svg width="24" height="24" viewBox="0 0 24 24" fill="none" xmlns="http://www.w3.org/2000/svg">
<path fill-rule="evenodd" clip-rule="evenodd" d="M8.75002 7C8.75002 5.20507 10.2051 3.75 12 3.75C13.7949 3.75 15.25 5.20507 15.25 7C15.25 8.79493 13.7949 10.25 12 10.25C10.2051 10.25 8.75002 8.79493 8.75002 7ZM12 2.25C9.37667 2.25 7.25002 4.37665 7.25002 7C7.25002 9.62335 9.37667 11.75 12 11.75C14.6234 11.75 16.75 9.62335 16.75 7C16.75 4.37665 14.6234 2.25 12 2.25ZM4.15894 17.8017C5.54241 15.3938 8.00891 14.7502 11.9904 14.7502C15.9737 14.7502 18.4597 15.3946 19.8427 17.8017C19.8415 17.7997 19.8416 17.8 19.8429 17.8029C19.847 17.8127 19.8638 17.8527 19.8876 17.938C19.9155 18.0382 19.9444 18.1681 19.9729 18.3245C20.03 18.637 20.0791 19.0163 20.1196 19.3985C20.1505 19.6891 20.1675 19.8566 20.1692 19.982C20.1702 20.057 20.1646 20.0883 20.1624 20.0972C20.1436 20.1416 20.097 20.1938 20.0546 20.2179C20.0454 20.2211 20.012 20.2303 19.9318 20.2375C19.7988 20.2493 19.6189 20.25 19.3138 20.25H4.68719C4.38188 20.25 4.20195 20.2493 4.06879 20.2375C3.98855 20.2303 3.95518 20.2211 3.94597 20.2179C3.90359 20.1937 3.85699 20.1416 3.83817 20.0971C3.83592 20.0882 3.83039 20.0569 3.83143 19.9819C3.83319 19.8564 3.85032 19.6887 3.8813 19.3981C3.92204 19.0159 3.97128 18.6368 4.02847 18.3245C4.0571 18.1681 4.08597 18.0382 4.11397 17.9381C4.13783 17.8527 4.15464 17.8127 4.15876 17.8029C4.15997 17.8 4.16008 17.7997 4.15894 17.8017ZM11.9904 13.2502C7.95272 13.2502 4.68397 13.8769 2.85832 17.0545C2.70177 17.3269 2.61272 17.7282 2.553 18.0543C2.48615 18.4195 2.43226 18.8404 2.38976 19.239L2.38677 19.2671C2.35979 19.5199 2.33442 19.7577 2.33158 19.961C2.32844 20.1857 2.35037 20.4278 2.45459 20.6765C2.60446 21.0341 2.88512 21.3462 3.2248 21.5332C3.46483 21.6653 3.70964 21.7114 3.93585 21.7316C4.1436 21.75 4.39138 21.75 4.65907 21.75L4.68719 21.75H19.3138L19.3419 21.75C19.6094 21.75 19.8571 21.75 20.0648 21.7316C20.2909 21.7115 20.5356 21.6653 20.7756 21.5333C21.1152 21.3465 21.3958 21.0345 21.5458 20.677C21.65 20.4285 21.6721 20.1865 21.6691 19.9618C21.6663 19.7586 21.6411 19.521 21.6142 19.2682L21.6113 19.2402C21.569 18.8414 21.5152 18.4203 21.4485 18.055C21.3889 17.7287 21.3 17.3272 21.1433 17.0545C19.3172 13.8761 16.0264 13.2502 11.9904 13.2502ZM3.83818 20.0971C3.83886 20.0988 3.83912 20.0998 3.83908 20.0999C3.83904 20.1 3.8387 20.0992 3.83818 20.0971ZM3.94542 20.2177C3.94379 20.2171 3.9431 20.2168 3.94316 20.2168L3.94542 20.2177ZM20.0552 20.2177L20.0574 20.2168C20.0575 20.2168 20.0568 20.2171 20.0552 20.2177Z" fill="#1E1915"/>
</svg>
