<svg width="16" height="16" viewBox="0 0 16 16" fill="none" xmlns="http://www.w3.org/2000/svg">
<g clip-path="url(#clip0_417_90588)">
<path d="M7.6491 1.00216C6.5256 1.01572 4.11017 1.20035 2.75917 2.43978C1.75423 3.43553 1.40335 4.90772 1.36223 6.72816C1.3281 8.54203 1.28698 11.9484 4.57042 12.8759V14.2886C4.57042 14.2886 4.54985 14.8538 4.92348 14.9698C5.38373 15.1155 5.64579 14.6806 6.08329 14.2133L6.89923 13.2907C9.14579 13.4775 10.8665 13.047 11.0647 12.9831C11.5205 12.8374 14.0882 12.5093 14.5078 9.10247C14.9383 5.5841 14.2982 3.36728 13.1428 2.36453H13.1358C12.7871 2.04341 11.3858 1.02228 8.25504 1.01091C8.25504 1.01091 8.02273 0.995159 7.6491 1.00172V1.00216ZM7.6876 1.99135C8.00654 1.98916 8.20035 2.00272 8.20035 2.00272C10.8503 2.00972 12.1151 2.80728 12.4135 3.07591C13.3865 3.90978 13.8879 5.90828 13.5208 8.84566C13.1721 11.6938 11.0896 11.874 10.7042 11.997C10.5401 12.0495 9.0246 12.4231 7.11535 12.3002C7.11535 12.3002 5.69348 14.016 5.24898 14.4579C5.17854 14.5353 5.09629 14.5581 5.04379 14.5467C4.96854 14.5283 4.94579 14.4352 4.95017 14.3074L4.96373 11.9628C2.17904 11.1928 2.3431 8.28741 2.37285 6.76972C2.40698 5.25203 2.69179 4.01041 3.53967 3.16953C4.6811 2.13747 6.7321 1.99835 7.68673 1.99135H7.6876ZM7.8976 3.5086C7.87469 3.50837 7.85195 3.51267 7.8307 3.52127C7.80945 3.52987 7.79012 3.54259 7.77381 3.55869C7.7575 3.5748 7.74454 3.59397 7.73568 3.61511C7.72682 3.63624 7.72222 3.65893 7.72217 3.68185C7.72217 3.77985 7.80179 3.85728 7.8976 3.85728C8.33139 3.84903 8.76251 3.92674 9.16611 4.08593C9.56972 4.24512 9.93781 4.48264 10.2492 4.78478C10.8849 5.4021 11.1946 6.2316 11.2064 7.31616C11.2064 7.41197 11.2839 7.4916 11.3819 7.4916V7.4846C11.428 7.48471 11.4724 7.46657 11.5053 7.43411C11.5381 7.40166 11.5568 7.35753 11.5573 7.31135C11.5785 6.80085 11.4957 6.29136 11.314 5.81386C11.1322 5.33635 10.8552 4.90079 10.4999 4.53366C9.80729 3.85685 8.92967 3.50816 7.8976 3.50816V3.5086ZM5.59154 3.90978C5.46771 3.89169 5.34141 3.91655 5.23367 3.98022H5.22448C4.97434 4.12684 4.74901 4.31216 4.55685 4.52928C4.39717 4.71391 4.31054 4.90072 4.28779 5.08053C4.27423 5.18772 4.28342 5.29491 4.31535 5.39728L4.32673 5.40428C4.50654 5.93278 4.74148 6.44116 5.02848 6.91978C5.39818 7.5922 5.85315 8.21407 6.3821 8.76997L6.39785 8.79272L6.42279 8.8111L6.43854 8.82947L6.45692 8.84522C7.01483 9.37573 7.63821 9.83282 8.31192 10.2054C9.08192 10.6245 9.54917 10.8227 9.8296 10.905V10.9093C9.91185 10.9343 9.98667 10.9457 10.0619 10.9457C10.3009 10.9281 10.5272 10.8311 10.7046 10.67C10.9207 10.4778 11.104 10.2516 11.2471 10.0002V9.99585C11.3814 9.74297 11.3359 9.50366 11.1421 9.34178C10.754 9.0025 10.3342 8.70115 9.88867 8.44185C9.59029 8.27997 9.2871 8.37797 9.16417 8.54203L8.9021 8.87235C8.76779 9.03641 8.52367 9.01366 8.52367 9.01366L8.51667 9.01803C6.69623 8.55297 6.2106 6.70978 6.2106 6.70978C6.2106 6.70978 6.18785 6.4591 6.35629 6.33135L6.68442 6.0671C6.84148 5.93935 6.95085 5.6366 6.78242 5.33778C6.5249 4.8916 6.22421 4.47178 5.88467 4.08435C5.81044 3.99301 5.7063 3.93087 5.59067 3.90891L5.59154 3.90978ZM8.20035 4.42953C7.96804 4.42953 7.96804 4.78041 8.20254 4.78041C8.49142 4.78509 8.77653 4.84666 9.0416 4.96159C9.30667 5.07652 9.54649 5.24256 9.74735 5.45022C9.93059 5.65235 10.0714 5.8892 10.1614 6.14674C10.2515 6.40428 10.2889 6.67727 10.2715 6.94953C10.2723 6.99561 10.2911 7.03954 10.3239 7.07193C10.3567 7.10431 10.4008 7.12256 10.4469 7.12278L10.4539 7.13197C10.5003 7.13163 10.5448 7.11303 10.5776 7.08021C10.6104 7.04738 10.629 7.00296 10.6294 6.95653C10.6451 6.26135 10.429 5.67816 10.005 5.21091C9.57892 4.74366 8.98435 4.4816 8.22529 4.42953H8.20035ZM8.48779 5.37278C8.24848 5.36578 8.23929 5.72366 8.47642 5.73066C9.05304 5.76041 9.33304 6.05178 9.36979 6.65116C9.37059 6.69666 9.38917 6.74003 9.42155 6.772C9.45393 6.80397 9.49754 6.822 9.54304 6.82222H9.55004C9.57344 6.82122 9.5964 6.81557 9.61758 6.80559C9.63877 6.79562 9.65775 6.78153 9.67343 6.76414C9.68911 6.74675 9.70117 6.72641 9.70891 6.7043C9.71664 6.6822 9.7199 6.65878 9.71848 6.63541C9.67735 5.85403 9.25123 5.41391 8.49479 5.37322H8.48779V5.37278Z" fill="url(#paint0_linear_417_90588)"/>
</g>
<defs>
<linearGradient id="paint0_linear_417_90588" x1="2.18557" y1="1.87501" x2="14.3705" y2="12.615" gradientUnits="userSpaceOnUse">
<stop stop-color="#835EF6"/>
<stop offset="1" stop-color="#533DA3"/>
</linearGradient>
<clipPath id="clip0_417_90588">
<rect width="14" height="14" fill="white" transform="translate(1 1)"/>
</clipPath>
</defs>
</svg>
