<svg width="16" height="16" viewBox="0 0 16 16" fill="none" xmlns="http://www.w3.org/2000/svg">
<path fill-rule="evenodd" clip-rule="evenodd" d="M13.0088 3.05498C11.7242 1.76891 10.0159 1.06036 8.19589 1.05957C4.44571 1.05957 1.39348 4.1116 1.39198 7.86295C1.39152 9.06208 1.70476 10.2325 2.3002 11.2644L1.33496 14.7901L4.94178 13.8439C5.93555 14.386 7.05443 14.6717 8.19314 14.6721H8.19595C11.9457 14.6721 14.9982 11.6197 14.9998 7.86826C15.0004 6.05038 14.2933 4.34098 13.0088 3.05498ZM8.19595 13.523H8.19366C7.17894 13.5227 6.18365 13.25 5.31543 12.7348L5.1089 12.6123L2.96856 13.1737L3.53985 11.0869L3.40539 10.8728C2.83934 9.97253 2.54031 8.93188 2.54077 7.86328C2.54201 4.74533 5.07885 2.20869 8.19824 2.20869C9.70864 2.20921 11.1286 2.79817 12.1963 3.86716C13.2639 4.93609 13.8515 6.35687 13.8509 7.86793C13.8497 10.9861 11.3128 13.523 8.19595 13.523ZM11.2979 9.2876C11.1279 9.20256 10.2921 8.79127 10.1362 8.73451C9.98044 8.67789 9.86706 8.64948 9.75375 8.81968C9.64043 8.98988 9.31456 9.37276 9.21539 9.48628C9.11621 9.59966 9.01704 9.61393 8.8471 9.52876C8.67703 9.44373 8.12931 9.26416 7.47993 8.68496C6.97456 8.23419 6.63338 7.6775 6.5342 7.50723C6.43503 7.33703 6.5236 7.24506 6.60876 7.16029C6.68522 7.08409 6.77877 6.96167 6.8638 6.86243C6.94884 6.76319 6.97712 6.69223 7.03381 6.57879C7.0905 6.46534 7.06215 6.36604 7.0196 6.281C6.97712 6.19584 6.63711 5.35904 6.49545 5.01864C6.35745 4.6872 6.2173 4.73204 6.11295 4.72681C6.01391 4.7219 5.90047 4.72079 5.78709 4.72079C5.67377 4.72079 5.48963 4.76334 5.33376 4.93354C5.17796 5.10374 4.73878 5.51503 4.73878 6.35183C4.73878 7.18863 5.3479 7.99695 5.43294 8.11046C5.51791 8.22391 6.63174 9.94104 8.33709 10.6775C8.74262 10.8527 9.05933 10.9572 9.30625 11.0356C9.71355 11.165 10.0841 11.1467 10.377 11.103C10.7037 11.0542 11.3828 10.6917 11.5245 10.2946C11.6661 9.89744 11.6661 9.55704 11.6237 9.48615C11.5812 9.41532 11.4679 9.37276 11.2979 9.2876Z" fill="url(#paint0_linear_417_89153)"/>
<defs>
<linearGradient id="paint0_linear_417_89153" x1="8.16738" y1="1.05957" x2="8.16738" y2="14.7901" gradientUnits="userSpaceOnUse">
<stop stop-color="#60FD7C"/>
<stop offset="1" stop-color="#26D044"/>
</linearGradient>
</defs>
</svg>
